<svg width="980" height="548" viewBox="0 0 980 548" fill="none" xmlns="http://www.w3.org/2000/svg">
<g clip-path="url(#clip0)">
<path d="M365.424 347.275C365.424 342.929 367.339 338.806 370.657 336.001L478.162 245.152C483.665 240.501 491.721 240.501 497.225 245.152L604.729 336.001C608.048 338.806 609.962 342.929 609.962 347.275V496.336C609.962 504.489 603.352 511.097 595.198 511.097H380.188C372.034 511.097 365.424 504.489 365.424 496.336V347.275Z" fill="#0015AD"/>
<path d="M585.047 289.684H389.416C386.358 289.684 383.879 292.162 383.879 295.219V505.562C383.879 508.619 386.358 511.098 389.416 511.098H585.047C588.105 511.098 590.584 508.619 590.584 505.562V295.219C590.584 292.162 588.105 289.684 585.047 289.684Z" fill="#F2BC22"/>
<path fill-rule="evenodd" clip-rule="evenodd" d="M531.892 329.956C529.858 327.922 526.561 327.922 524.527 329.956L485.741 368.732L469.361 352.355C467.327 350.322 464.03 350.322 461.996 352.355C459.962 354.389 459.962 357.685 461.996 359.718L481.471 379.189C481.894 379.611 482.364 379.957 482.863 380.228C485.141 381.479 488.06 381.139 489.991 379.209L531.892 337.319C533.925 335.285 533.925 331.989 531.892 329.956Z" fill="white"/>
<path d="M609.963 346.882C609.963 346.372 609.549 345.959 609.04 345.959H590.584L493.691 428.528L590.584 511.097H595.198C603.353 511.097 609.963 504.489 609.963 496.336V346.882Z" fill="#4E5FD5"/>
<path d="M365.424 346.882C365.424 346.372 365.837 345.959 366.347 345.959H384.802L481.695 428.528L384.802 511.097H380.188C372.034 511.097 365.424 504.489 365.424 496.336V346.882Z" fill="#4E5FD5"/>
<path d="M478.973 405.849C484.165 402.049 491.221 402.049 496.414 405.849L603.482 484.195C615.003 492.624 609.038 510.867 594.761 510.867H380.625C366.348 510.867 360.385 492.624 371.905 484.195L478.973 405.849Z" fill="#0015AD"/>
<path d="M94.1242 49.3572C94.1242 48.0834 93.0913 47.0508 91.8172 47.0508C90.5431 47.0508 89.5103 48.0834 89.5103 49.3572V60.4279C89.5103 61.7017 90.5431 62.7343 91.8172 62.7343C93.0913 62.7343 94.1242 61.7017 94.1242 60.4279V49.3572Z" fill="#F2BC22"/>
<path d="M115.795 62.2489C116.796 61.4605 116.968 60.0104 116.179 59.0099C115.391 58.0093 113.94 57.8373 112.939 58.6257L104.242 65.4773C103.241 66.2656 103.069 67.7158 103.857 68.7163C104.646 69.7168 106.096 69.8888 107.097 69.1005L115.795 62.2489Z" fill="#F2BC22"/>
<path d="M67.3301 62.2489C66.3293 61.4605 66.1572 60.0104 66.9458 59.0099C67.7343 58.0093 69.1848 57.8373 70.1856 58.6257L78.8835 65.4773C79.8843 66.2656 80.0563 67.7158 79.2678 68.7163C78.4792 69.7168 77.0287 69.8888 76.0279 69.1005L67.3301 62.2489Z" fill="#F2BC22"/>
<path d="M119.272 86.3407C120.524 86.5756 121.73 85.7512 121.965 84.4993C122.2 83.2473 121.375 82.042 120.123 81.807L109.239 79.7653C107.987 79.5303 106.781 80.3548 106.546 81.6067C106.311 82.8587 107.136 84.064 108.388 84.2989L119.272 86.3407Z" fill="#F2BC22"/>
<path d="M101.78 105.386C102.333 106.534 103.712 107.016 104.86 106.462C106.008 105.909 106.489 104.531 105.936 103.383L101.128 93.4109C100.574 92.2635 99.1955 91.7817 98.0478 92.3348C96.9001 92.888 96.4182 94.2665 96.9714 95.4139L101.78 105.386Z" fill="#F2BC22"/>
<path d="M76.6405 103.168C76.041 104.292 76.4665 105.689 77.5908 106.288C78.7151 106.887 80.1124 106.462 80.7119 105.338L85.9218 95.569C86.5213 94.445 86.0958 93.048 84.9715 92.4487C83.8472 91.8494 82.4499 92.2747 81.8504 93.3987L76.6405 103.168Z" fill="#F2BC22"/>
<path d="M62.2568 81.5378C61 81.747 60.1509 82.9353 60.3602 84.1917C60.5696 85.4482 61.7581 86.2971 63.0149 86.0879L73.9378 84.269C75.1946 84.0597 76.0438 82.8715 75.8344 81.615C75.6251 80.3585 74.4366 79.5096 73.1798 79.7189L62.2568 81.5378Z" fill="#F2BC22"/>
<path d="M215.03 267.493C215.03 267.01 214.638 266.619 214.156 266.619C213.673 266.619 213.281 267.01 213.281 267.493V271.689C213.281 272.171 213.673 272.563 214.156 272.563C214.638 272.563 215.03 272.171 215.03 271.689V267.493Z" fill="#B6BECF"/>
<path d="M223.242 272.38C223.621 272.081 223.687 271.532 223.388 271.152C223.089 270.773 222.539 270.708 222.16 271.007L218.864 273.603C218.484 273.902 218.419 274.452 218.718 274.831C219.017 275.21 219.567 275.275 219.946 274.976L223.242 272.38Z" fill="#B6BECF"/>
<path d="M204.876 272.38C204.496 272.081 204.431 271.532 204.73 271.152C205.029 270.773 205.578 270.708 205.958 271.007L209.254 273.603C209.633 273.902 209.699 274.452 209.4 274.831C209.101 275.21 208.551 275.275 208.172 274.976L204.876 272.38Z" fill="#B6BECF"/>
<path d="M224.56 281.51C225.035 281.599 225.492 281.287 225.581 280.812C225.67 280.338 225.357 279.881 224.883 279.792L220.758 279.018C220.284 278.929 219.827 279.242 219.738 279.716C219.649 280.19 219.961 280.647 220.436 280.736L224.56 281.51Z" fill="#B6BECF"/>
<path d="M217.931 288.728C218.141 289.162 218.664 289.345 219.099 289.135C219.534 288.926 219.716 288.403 219.507 287.968L217.684 284.189C217.475 283.754 216.952 283.572 216.517 283.781C216.082 283.991 215.899 284.513 216.109 284.948L217.931 288.728Z" fill="#B6BECF"/>
<path d="M208.764 289.069L208.764 289.069C209.19 289.296 209.72 289.135 209.947 288.709L211.921 285.007C212.149 284.581 211.987 284.052 211.561 283.824L211.561 283.824C211.135 283.597 210.606 283.759 210.378 284.185L208.404 287.887C208.177 288.313 208.338 288.842 208.764 289.069Z" fill="#B6BECF"/>
<path d="M202.953 279.69C202.476 279.769 202.154 280.219 202.234 280.695C202.313 281.172 202.764 281.493 203.24 281.414L207.379 280.725C207.856 280.645 208.178 280.195 208.098 279.719C208.019 279.243 207.568 278.921 207.092 279L202.953 279.69Z" fill="#B6BECF"/>
<path d="M101.527 220.443C101.527 219.961 101.135 219.569 100.653 219.569C100.17 219.569 99.7783 219.961 99.7783 220.443V224.639C99.7783 225.122 100.17 225.513 100.653 225.513C101.135 225.513 101.527 225.122 101.527 224.639V220.443Z" fill="#F0C449"/>
<path d="M109.739 225.329C110.118 225.03 110.184 224.481 109.885 224.102C109.586 223.722 109.036 223.657 108.657 223.956L105.361 226.553C104.981 226.851 104.916 227.401 105.215 227.78C105.514 228.159 106.064 228.225 106.443 227.926L109.739 225.329Z" fill="#F0C449"/>
<path d="M91.3726 225.329C90.9933 225.03 90.9281 224.481 91.227 224.102C91.5258 223.722 92.0755 223.657 92.4548 223.956L95.7511 226.553C96.1304 226.851 96.1956 227.401 95.8967 227.78C95.5979 228.159 95.0482 228.224 94.6689 227.926L91.3726 225.329Z" fill="#F0C449"/>
<path d="M111.058 234.46C111.533 234.549 111.989 234.237 112.078 233.762C112.168 233.288 111.855 232.831 111.38 232.742L107.256 231.968C106.781 231.879 106.324 232.192 106.235 232.666C106.146 233.141 106.459 233.597 106.933 233.686L111.058 234.46Z" fill="#F0C449"/>
<path d="M104.429 241.678C104.639 242.113 105.161 242.295 105.596 242.086C106.031 241.876 106.214 241.354 106.004 240.919L104.182 237.139C103.972 236.705 103.45 236.522 103.015 236.732C102.58 236.941 102.397 237.464 102.607 237.898L104.429 241.678Z" fill="#F0C449"/>
<path d="M94.9011 240.837C94.6739 241.263 94.8352 241.792 95.2612 242.019C95.6873 242.247 96.2169 242.085 96.4441 241.659L98.4185 237.957C98.6457 237.531 98.4844 237.002 98.0584 236.775C97.6323 236.548 97.1027 236.709 96.8756 237.135L94.9011 240.837Z" fill="#F0C449"/>
<path d="M88.7314 233.645L88.7314 233.645C88.8107 234.121 89.2611 234.443 89.7374 234.363L93.877 233.674C94.3533 233.595 94.6751 233.144 94.5958 232.668L94.5958 232.668C94.5164 232.192 94.066 231.87 93.5897 231.95L89.4501 232.639C88.9738 232.718 88.652 233.168 88.7314 233.645Z" fill="#F0C449"/>
<path d="M16.6304 109.736C16.6304 109.254 16.239 108.862 15.7561 108.862C15.2733 108.862 14.8818 109.254 14.8818 109.736V113.932C14.8818 114.415 15.2733 114.806 15.7561 114.806C16.239 114.806 16.6304 114.415 16.6304 113.932V109.736Z" fill="#ABB1DF"/>
<path d="M24.8432 114.622C25.2225 114.323 25.2877 113.774 24.9888 113.395C24.69 113.015 24.1403 112.95 23.761 113.249L20.4647 115.846C20.0854 116.144 20.0202 116.694 20.3191 117.073C20.6179 117.452 21.1676 117.517 21.5469 117.219L24.8432 114.622Z" fill="#ABB1DF"/>
<path d="M6.47613 114.622C6.09686 114.323 6.03165 113.774 6.33049 113.395C6.62933 113.015 7.17904 112.95 7.55831 113.249L10.8546 115.846C11.2339 116.144 11.2991 116.694 11.0003 117.073C10.7014 117.452 10.1517 117.517 9.77244 117.219L6.47613 114.622Z" fill="#ABB1DF"/>
<path d="M26.161 123.752C26.6356 123.841 27.0925 123.529 27.1815 123.054C27.2706 122.58 26.9581 122.123 26.4835 122.034L22.3589 121.26C21.8843 121.171 21.4274 121.484 21.3383 121.958C21.2493 122.433 21.5618 122.889 22.0364 122.978L26.161 123.752Z" fill="#ABB1DF"/>
<path d="M19.532 130.971C19.7417 131.406 20.2643 131.588 20.6993 131.379C21.1342 131.169 21.3168 130.647 21.1072 130.212L19.2848 126.432C19.0751 125.997 18.5526 125.815 18.1176 126.024C17.6827 126.234 17.5 126.757 17.7097 127.191L19.532 130.971Z" fill="#ABB1DF"/>
<path d="M10.3647 131.311L10.3648 131.311C10.7908 131.539 11.3204 131.377 11.5476 130.951L13.522 127.249C13.7492 126.823 13.588 126.294 13.1619 126.067L13.1619 126.067C12.7358 125.84 12.2062 126.001 11.9791 126.427L10.0046 130.129C9.77743 130.555 9.93867 131.084 10.3647 131.311Z" fill="#ABB1DF"/>
<path d="M3.83487 122.938L3.83487 122.938C3.9142 123.414 4.36463 123.736 4.84093 123.656L8.9805 122.967C9.4568 122.888 9.77861 122.437 9.69928 121.961L9.69928 121.961C9.61994 121.485 9.16952 121.163 8.69322 121.242L4.55364 121.932C4.07735 122.011 3.75554 122.461 3.83487 122.938Z" fill="#ABB1DF"/>
<path d="M49.6483 414.603C49.6483 413.887 49.0676 413.307 48.3512 413.307C47.6349 413.307 47.0542 413.887 47.0542 414.603V420.828C47.0542 421.544 47.6349 422.124 48.3512 422.124C49.0676 422.124 49.6483 421.544 49.6483 420.828V414.603Z" fill="#F0C449"/>
<path d="M61.8318 421.852C62.3944 421.409 62.4912 420.594 62.0478 420.031C61.6045 419.469 60.789 419.372 60.2263 419.815L55.3361 423.667C54.7734 424.111 54.6767 424.926 55.1201 425.489C55.5634 426.051 56.3789 426.148 56.9416 425.705L61.8318 421.852Z" fill="#F0C449"/>
<path d="M34.5837 421.852C34.0211 421.409 33.9243 420.594 34.3677 420.031C34.811 419.469 35.6265 419.372 36.1892 419.815L41.0794 423.667C41.6421 424.111 41.7388 424.926 41.2955 425.489C40.8521 426.051 40.0366 426.148 39.4739 425.705L34.5837 421.852Z" fill="#F0C449"/>
<path d="M63.7868 435.397C64.4909 435.529 65.1687 435.065 65.3008 434.361C65.4329 433.658 64.9693 432.98 64.2653 432.848L58.1463 431.7C57.4422 431.568 56.7644 432.031 56.6323 432.735C56.5001 433.439 56.9638 434.117 57.6678 434.249L63.7868 435.397Z" fill="#F0C449"/>
<path d="M53.9531 446.105C54.2641 446.75 55.0394 447.021 55.6847 446.71C56.3299 446.399 56.6009 445.624 56.2898 444.978L53.5863 439.372C53.2752 438.726 52.5 438.456 51.8547 438.767C51.2094 439.078 50.9385 439.853 51.2496 440.498L53.9531 446.105Z" fill="#F0C449"/>
<path d="M39.8188 444.857C39.4817 445.489 39.7209 446.275 40.353 446.612C40.9851 446.949 41.7708 446.709 42.1078 446.077L45.037 440.585C45.374 439.953 45.1348 439.168 44.5027 438.831C43.8706 438.494 43.085 438.733 42.7479 439.365L39.8188 444.857Z" fill="#F0C449"/>
<path d="M31.7316 432.696C31.025 432.813 30.5476 433.481 30.6653 434.188C30.783 434.894 31.4512 435.371 32.1578 435.254L38.299 434.231C39.0056 434.113 39.483 433.445 39.3653 432.739C39.2476 432.033 38.5794 431.555 37.8728 431.673L31.7316 432.696Z" fill="#F0C449"/>
<path d="M929.27 309.932C929.27 309.449 928.878 309.058 928.395 309.058C927.912 309.058 927.521 309.449 927.521 309.932V314.127C927.521 314.61 927.912 315.001 928.395 315.001C928.878 315.001 929.27 314.61 929.27 314.127V309.932Z" fill="#B6BECF"/>
<path d="M937.477 314.817C937.856 314.519 937.921 313.969 937.622 313.59C937.323 313.211 936.774 313.146 936.394 313.444L933.098 316.041C932.719 316.34 932.654 316.889 932.952 317.268C933.251 317.648 933.801 317.713 934.18 317.414L937.477 314.817Z" fill="#B6BECF"/>
<path d="M919.113 314.817C918.734 314.519 918.669 313.969 918.968 313.59C919.267 313.211 919.816 313.146 920.196 313.444L923.492 316.041C923.871 316.34 923.936 316.889 923.637 317.268C923.339 317.648 922.789 317.713 922.41 317.414L919.113 314.817Z" fill="#B6BECF"/>
<path d="M938.797 323.948C939.271 324.037 939.728 323.724 939.817 323.25C939.906 322.775 939.594 322.318 939.119 322.229L934.995 321.456C934.52 321.367 934.063 321.679 933.974 322.154C933.885 322.628 934.197 323.085 934.672 323.174L938.797 323.948Z" fill="#B6BECF"/>
<path d="M932.164 331.166C932.374 331.601 932.897 331.783 933.332 331.574C933.767 331.364 933.949 330.842 933.739 330.407L931.917 326.628C931.707 326.193 931.185 326.01 930.75 326.22C930.315 326.429 930.132 326.952 930.342 327.387L932.164 331.166Z" fill="#B6BECF"/>
<path d="M922.643 330.324C922.416 330.75 922.577 331.28 923.003 331.507C923.429 331.734 923.959 331.573 924.186 331.147L926.16 327.444C926.387 327.018 926.226 326.489 925.8 326.262C925.374 326.035 924.844 326.196 924.617 326.622L922.643 330.324Z" fill="#B6BECF"/>
<path d="M917.19 322.127C916.714 322.206 916.392 322.657 916.471 323.133C916.55 323.609 917.001 323.931 917.477 323.852L921.617 323.162C922.093 323.083 922.415 322.633 922.336 322.156C922.256 321.68 921.806 321.358 921.33 321.438L917.19 322.127Z" fill="#B6BECF"/>
<path d="M824.069 176.16C824.069 175.677 823.678 175.286 823.195 175.286C822.712 175.286 822.32 175.677 822.32 176.16V180.356C822.32 180.839 822.712 181.23 823.195 181.23C823.678 181.23 824.069 180.839 824.069 180.356V176.16Z" fill="#2D3A93"/>
<path d="M832.282 181.046C832.661 180.747 832.726 180.198 832.427 179.818C832.128 179.439 831.579 179.374 831.2 179.673L827.903 182.269C827.524 182.568 827.459 183.118 827.758 183.497C828.056 183.876 828.606 183.941 828.985 183.643L832.282 181.046Z" fill="#2D3A93"/>
<path d="M813.916 181.046C813.536 180.747 813.471 180.198 813.77 179.818C814.069 179.439 814.618 179.374 814.998 179.673L818.294 182.269C818.673 182.568 818.738 183.118 818.44 183.497C818.141 183.876 817.591 183.941 817.212 183.643L813.916 181.046Z" fill="#2D3A93"/>
<path d="M833.6 190.177C834.075 190.266 834.531 189.954 834.62 189.479C834.71 189.005 834.397 188.548 833.922 188.459L829.798 187.685C829.323 187.596 828.866 187.909 828.777 188.383C828.688 188.857 829.001 189.314 829.475 189.403L833.6 190.177Z" fill="#2D3A93"/>
<path d="M826.971 197.395C827.181 197.829 827.703 198.012 828.138 197.802C828.573 197.593 828.756 197.07 828.546 196.635L826.724 192.856C826.514 192.421 825.992 192.239 825.557 192.448C825.122 192.658 824.939 193.18 825.149 193.615L826.971 197.395Z" fill="#2D3A93"/>
<path d="M817.443 196.554C817.216 196.98 817.377 197.509 817.803 197.736C818.229 197.963 818.759 197.802 818.986 197.376L820.961 193.674C821.188 193.248 821.026 192.719 820.6 192.491C820.174 192.264 819.645 192.425 819.418 192.851L817.443 196.554Z" fill="#2D3A93"/>
<path d="M811.992 188.357C811.516 188.436 811.194 188.886 811.273 189.362C811.353 189.839 811.803 190.16 812.279 190.081L816.419 189.392C816.895 189.312 817.217 188.862 817.138 188.386C817.058 187.91 816.608 187.588 816.132 187.667L811.992 188.357Z" fill="#2D3A93"/>
<path d="M605.348 85.3367C605.348 84.0629 604.315 83.0303 603.041 83.0303C601.767 83.0303 600.734 84.0629 600.734 85.3367V96.4074C600.734 97.6812 601.767 98.7138 603.041 98.7138C604.315 98.7138 605.348 97.6812 605.348 96.4074V85.3367Z" fill="#ABB1DF"/>
<path d="M627.019 98.2294C628.02 97.441 628.192 95.9909 627.403 94.9903C626.615 93.9898 625.164 93.8178 624.164 94.6061L615.466 101.458C614.465 102.246 614.293 103.696 615.081 104.697C615.87 105.697 617.32 105.869 618.321 105.081L627.019 98.2294Z" fill="#ABB1DF"/>
<path d="M578.554 98.2294C577.553 97.441 577.381 95.9908 578.169 94.9903C578.958 93.9898 580.408 93.8178 581.409 94.6061L590.107 101.458C591.108 102.246 591.28 103.696 590.491 104.697C589.703 105.697 588.252 105.869 587.252 105.081L578.554 98.2294Z" fill="#ABB1DF"/>
<path d="M630.496 122.32C631.748 122.555 632.954 121.731 633.189 120.479C633.424 119.227 632.599 118.021 631.347 117.787L620.463 115.745C619.211 115.51 618.005 116.334 617.771 117.586C617.536 118.838 618.36 120.043 619.612 120.278L630.496 122.32Z" fill="#ABB1DF"/>
<path d="M613.004 141.366C613.557 142.513 614.936 142.995 616.084 142.442C617.232 141.889 617.714 140.51 617.16 139.363L612.352 129.39C611.799 128.243 610.42 127.761 609.272 128.314C608.124 128.867 607.642 130.246 608.196 131.393L613.004 141.366Z" fill="#ABB1DF"/>
<path d="M587.865 139.147C587.265 140.271 587.691 141.668 588.815 142.267C589.939 142.867 591.337 142.441 591.936 141.317L597.146 131.549C597.745 130.425 597.32 129.028 596.196 128.428C595.071 127.829 593.674 128.254 593.075 129.378L587.865 139.147Z" fill="#ABB1DF"/>
<path d="M573.481 117.517C572.225 117.727 571.376 118.915 571.585 120.171C571.794 121.428 572.983 122.277 574.239 122.067L585.162 120.248C586.419 120.039 587.268 118.851 587.059 117.595C586.85 116.338 585.661 115.489 584.404 115.698L573.481 117.517Z" fill="#ABB1DF"/>
<path d="M299.906 368.562C299.906 367.288 298.873 366.256 297.599 366.256C296.325 366.256 295.292 367.288 295.292 368.562V379.633C295.292 380.907 296.325 381.939 297.599 381.939C298.873 381.939 299.906 380.907 299.906 379.633V368.562Z" fill="#ABB1DF"/>
<path d="M321.576 381.455C322.577 380.667 322.749 379.216 321.96 378.216C321.172 377.215 319.721 377.043 318.721 377.832L310.023 384.683C309.022 385.472 308.85 386.922 309.638 387.922C310.427 388.923 311.877 389.095 312.878 388.307L321.576 381.455Z" fill="#ABB1DF"/>
<path d="M273.111 381.455C272.11 380.667 271.938 379.216 272.727 378.216C273.515 377.215 274.966 377.043 275.966 377.832L284.664 384.683C285.665 385.472 285.837 386.922 285.048 387.922C284.26 388.923 282.809 389.095 281.809 388.307L273.111 381.455Z" fill="#ABB1DF"/>
<path d="M325.053 405.546C326.305 405.781 327.511 404.956 327.746 403.704C327.981 402.452 327.156 401.247 325.904 401.012L315.021 398.97C313.768 398.735 312.563 399.56 312.328 400.812C312.093 402.064 312.917 403.269 314.17 403.504L325.053 405.546Z" fill="#ABB1DF"/>
<path d="M307.562 424.591C308.115 425.739 309.494 426.221 310.642 425.668C311.789 425.114 312.271 423.736 311.718 422.588L306.909 412.616C306.356 411.469 304.977 410.987 303.83 411.54C302.682 412.093 302.2 413.472 302.753 414.619L307.562 424.591Z" fill="#ABB1DF"/>
<path d="M282.422 422.373C281.822 423.497 282.248 424.894 283.372 425.493C284.496 426.092 285.894 425.667 286.493 424.543L291.703 414.774C292.303 413.65 291.877 412.253 290.753 411.654C289.628 411.054 288.231 411.48 287.632 412.604L282.422 422.373Z" fill="#ABB1DF"/>
<path d="M268.039 400.743C266.782 400.952 265.933 402.14 266.142 403.397C266.352 404.653 267.54 405.502 268.797 405.293L279.72 403.474C280.977 403.265 281.826 402.077 281.617 400.82C281.407 399.564 280.219 398.715 278.962 398.924L268.039 400.743Z" fill="#ABB1DF"/>
<path d="M781.306 321.479C781.306 320.733 780.701 320.128 779.954 320.128C779.208 320.128 778.603 320.733 778.603 321.479V327.967C778.603 328.713 779.208 329.318 779.954 329.318C780.701 329.318 781.306 328.713 781.306 327.967V321.479Z" fill="#2D3A93"/>
<path d="M794.231 327.137L794.231 327.137C793.769 326.55 792.919 326.45 792.332 326.912L787.235 330.927C786.649 331.389 786.548 332.238 787.01 332.825L787.01 332.825C787.472 333.411 788.322 333.512 788.909 333.05L794.006 329.035C794.592 328.573 794.693 327.723 794.231 327.137Z" fill="#2D3A93"/>
<path d="M765.38 327.137L765.38 327.137C765.842 326.55 766.692 326.45 767.279 326.912L772.376 330.927C772.962 331.388 773.063 332.238 772.601 332.825L772.601 332.825C772.139 333.411 771.289 333.512 770.702 333.05L765.605 329.035C765.019 328.573 764.918 327.723 765.38 327.137Z" fill="#2D3A93"/>
<path d="M796.043 343.152C796.777 343.289 797.484 342.806 797.621 342.072C797.759 341.339 797.276 340.633 796.542 340.495L790.164 339.298C789.43 339.161 788.724 339.644 788.586 340.377C788.449 341.111 788.932 341.817 789.666 341.955L796.043 343.152Z" fill="#2D3A93"/>
<path d="M787.598 354.942L787.598 354.942C788.271 354.618 788.553 353.81 788.229 353.138L785.411 347.294C785.087 346.622 784.279 346.34 783.606 346.664L783.606 346.664C782.934 346.988 782.651 347.796 782.976 348.468L785.793 354.312C786.118 354.984 786.926 355.266 787.598 354.942Z" fill="#2D3A93"/>
<path d="M771.061 353.011C770.71 353.67 770.959 354.489 771.618 354.84C772.277 355.191 773.096 354.942 773.447 354.283L776.5 348.559C776.851 347.9 776.602 347.081 775.943 346.73C775.284 346.379 774.465 346.628 774.114 347.287L771.061 353.011Z" fill="#2D3A93"/>
<path d="M762.632 340.336C761.896 340.459 761.398 341.155 761.521 341.891C761.644 342.628 762.34 343.125 763.077 343.003L769.477 341.937C770.214 341.814 770.711 341.118 770.589 340.382C770.466 339.645 769.77 339.148 769.033 339.27L762.632 340.336Z" fill="#2D3A93"/>
<path d="M98.3836 289.684C94.3861 294.437 93.6949 298.98 94.3307 305.015C94.6583 308.133 95.3098 313.883 98.9714 315.034C103.778 316.543 109.762 313.179 113.026 309.913C115.094 307.841 116.02 302.762 114.856 300.198C113.824 297.923 110.36 299.086 108.679 299.91C104.667 301.874 103.33 304.819 102.06 308.824C100.704 313.102 101.072 317.09 102.943 321.179C104.427 324.421 106.865 326.555 110.575 326.555C115.505 326.555 119.566 325.623 124.041 323.612C125.789 322.826 126.735 321.463 127.947 320.128C128.741 319.253 128.682 318.185 128.682 317.049C128.682 314.903 126.362 314.821 124.727 315.097C122.263 315.515 119.35 317.467 118.239 319.643C116.371 323.301 116.622 327.119 116.622 331.133C116.622 334.178 117.257 337.786 120.609 338.383C123.425 338.884 125.912 338.486 127.947 336.494C128.89 335.571 130.574 333.505 131.497 332.121" stroke="#2D3A93" stroke-width="4" stroke-miterlimit="2.61313" stroke-linecap="round"/>
<path d="M134.372 137.461C130.375 142.214 129.684 146.758 130.319 152.792C130.647 155.91 131.299 161.661 134.96 162.811C139.767 164.32 145.751 160.957 149.015 157.69C151.083 155.619 152.009 150.539 150.845 147.975C149.812 145.7 146.349 146.864 144.668 147.688C140.656 149.652 139.319 152.596 138.049 156.601C136.693 160.879 137.06 164.867 138.932 168.956C140.416 172.198 142.854 174.333 146.563 174.333C151.494 174.333 155.555 173.4 160.03 171.389C161.777 170.603 162.724 169.24 163.936 167.905C164.729 167.031 164.671 165.962 164.671 164.827C164.671 162.68 162.35 162.598 160.716 162.875C158.251 163.293 155.339 165.245 154.228 167.42C152.36 171.078 152.61 174.897 152.61 178.911C152.61 181.955 153.246 185.563 156.598 186.16C159.414 186.661 161.901 186.263 163.936 184.272C164.879 183.348 166.563 181.282 167.486 179.899" stroke="#2D3A93" stroke-width="4" stroke-miterlimit="2.61313" stroke-linecap="round"/>
<path d="M202.659 122.7C198.661 127.453 197.97 131.997 198.606 138.031C198.934 141.15 199.585 146.9 203.247 148.05C208.054 149.56 214.038 146.196 217.302 142.929C219.37 140.858 220.295 135.778 219.132 133.215C218.099 130.94 214.636 132.103 212.955 132.927C208.942 134.891 207.605 137.836 206.335 141.841C204.98 146.118 205.347 150.107 207.218 154.195C208.702 157.437 211.14 159.572 214.85 159.572C219.78 159.572 223.842 158.639 228.316 156.628C230.064 155.842 231.011 154.48 232.222 153.145C233.016 152.27 232.958 151.202 232.958 150.066C232.958 147.919 230.637 147.837 229.003 148.114C226.538 148.532 223.626 150.484 222.515 152.659C220.647 156.317 220.897 160.136 220.897 164.15C220.897 167.194 221.533 170.802 224.884 171.399C227.701 171.9 230.188 171.503 232.222 169.511C233.165 168.587 234.85 166.522 235.772 165.138" stroke="#ABB1DF" stroke-width="4" stroke-miterlimit="2.61313" stroke-linecap="round"/>
<path d="M7.95079 1.84473C3.95355 6.59791 3.26258 11.1415 3.89788 17.1762C4.22614 20.2943 4.8775 26.0443 8.53912 27.1944C13.3452 28.7041 19.3302 25.34 22.5936 22.0733C24.662 20.0027 25.5877 14.9233 24.4239 12.3591C23.3915 10.0843 19.9278 11.2478 18.2465 12.071C14.2346 14.0354 12.897 16.98 11.6278 20.9851C10.2721 25.263 10.6388 29.2516 12.5103 33.3399C13.9943 36.5817 16.4324 38.7171 20.1422 38.7171C25.0726 38.7171 29.1338 37.7838 33.6083 35.7724C35.3561 34.9867 36.3025 33.624 37.5141 32.2892C38.3076 31.415 38.2496 30.3465 38.2496 29.2109C38.2496 27.0635 35.9293 26.9814 34.2947 27.2585C31.8296 27.6763 28.9172 29.6288 27.8068 31.8035C25.9391 35.4616 26.1889 39.2804 26.1889 43.2941C26.1889 46.3384 26.8248 49.947 30.1764 50.5438C32.9923 51.0451 35.48 50.6473 37.5141 48.6553C38.4575 47.7315 40.1415 45.6663 41.0643 44.2824" stroke="#2D3A93" stroke-width="4" stroke-miterlimit="2.61313" stroke-linecap="round"/>
<path d="M698.196 13.8379C694.198 18.5911 693.507 23.1347 694.143 29.1693C694.47 32.2875 695.122 38.0374 698.783 39.1876C703.59 40.6973 709.575 37.3332 712.838 34.0665C714.906 31.9959 715.832 26.9165 714.668 24.3523C713.636 22.0774 710.173 23.241 708.491 24.0642C704.479 26.0286 703.142 28.9732 701.872 32.9782C700.516 37.2561 700.884 41.2447 702.755 45.333C704.239 48.5749 706.677 50.7103 710.387 50.7103C715.317 50.7103 719.378 49.7769 723.853 47.7656C725.601 46.9799 726.547 45.6172 727.759 44.2823C728.553 43.4082 728.495 42.3397 728.495 41.204C728.495 39.0567 726.174 38.9746 724.539 39.2516C722.075 39.6695 719.162 41.622 718.051 43.7967C716.184 47.4547 716.434 51.2736 716.434 55.2873C716.434 58.3315 717.069 61.9401 720.421 62.5369C723.237 63.0382 725.724 62.6404 727.759 60.6484C728.702 59.7247 730.386 57.6594 731.309 56.2756" stroke="#2D3A93" stroke-width="4" stroke-miterlimit="2.61313" stroke-linecap="round"/>
<path d="M892.312 52.6552C896.115 57.565 900.411 59.1995 906.445 59.8528C909.564 60.1904 915.323 60.7679 917.22 57.4326C919.71 53.0547 917.686 46.4957 915.181 42.617C913.593 40.1586 908.823 38.1815 906.07 38.7774C903.627 39.306 904.034 42.9364 904.484 44.7532C905.557 49.0884 908.153 51.0172 911.801 53.1032C915.697 55.3313 919.675 55.815 924.07 54.8493C927.549 54.0836 930.151 52.1519 930.935 48.5267C931.978 43.7087 931.923 39.543 930.898 34.7456C930.502 32.8718 929.367 31.6592 928.315 30.1934C927.632 29.2335 926.571 29.0645 925.463 28.8248C923.368 28.3714 922.796 30.6213 922.721 32.2772C922.609 34.7745 923.904 38.0327 925.795 39.577C928.979 42.1746 932.762 42.7368 936.684 43.5841C939.665 44.2269 943.328 44.3674 944.62 41.2181C945.7 38.5722 945.838 36.0572 944.316 33.6489C943.614 32.532 941.953 30.4503 940.791 29.2564" stroke="#F0C449" stroke-width="4" stroke-miterlimit="2.61313" stroke-linecap="round"/>
<path d="M3.66748 491.793C7.47068 496.703 11.7671 498.338 17.8013 498.991C20.9192 499.328 26.6785 499.906 28.5761 496.571C31.0668 492.192 29.0414 485.634 26.5366 481.755C24.9489 479.297 20.1782 477.32 17.4254 477.915C14.9835 478.444 15.3897 482.075 15.8395 483.891C16.913 488.226 19.5095 490.155 23.1573 492.241C27.0535 494.469 31.0305 494.953 35.4229 493.988C38.9058 493.222 41.5082 491.29 42.2916 487.665C43.3325 482.847 43.2775 478.681 42.2558 473.883C41.8567 472.01 40.7241 470.797 39.6749 469.331C38.9877 468.371 37.9309 468.202 36.8206 467.962C34.721 467.509 34.1509 469.76 34.0767 471.416C33.9646 473.913 35.2587 477.17 37.1505 478.715C40.3326 481.313 44.1191 481.875 48.0432 482.722C51.0196 483.364 54.6819 483.506 55.9731 480.356C57.0578 477.71 57.194 475.195 55.6761 472.786C54.972 471.67 53.3084 469.588 52.1503 468.394" stroke="#F0C449" stroke-width="4" stroke-miterlimit="2.61313" stroke-linecap="round"/>
<path d="M241.416 13.8379C237.418 18.5911 236.727 23.1347 237.363 29.1693C237.691 32.2875 238.342 38.0374 242.004 39.1876C246.81 40.6973 252.795 37.3332 256.059 34.0665C258.127 31.9959 259.052 26.9165 257.889 24.3523C256.856 22.0774 253.393 23.241 251.711 24.0642C247.699 26.0286 246.362 28.9732 245.092 32.9782C243.737 37.2561 244.104 41.2447 245.975 45.333C247.459 48.5749 249.897 50.7103 253.607 50.7103C258.537 50.7103 262.598 49.7769 267.073 47.7656C268.821 46.9799 269.768 45.6172 270.979 44.2823C271.773 43.4082 271.715 42.3397 271.715 41.204C271.715 39.0567 269.394 38.9746 267.76 39.2516C265.295 39.6695 262.382 41.622 261.271 43.7967C259.404 47.4547 259.654 51.2736 259.654 55.2873C259.654 58.3315 260.29 61.9401 263.641 62.5369C266.457 63.0382 268.944 62.6404 270.979 60.6484C271.922 59.7247 273.606 57.6594 274.529 56.2756" stroke="#F0C449" stroke-width="4" stroke-miterlimit="2.61313" stroke-linecap="round"/>
<path d="M803.173 275.153C806.518 280.386 810.65 282.4 816.6 283.594C819.676 284.211 825.359 285.305 827.55 282.154C830.425 278.018 828.999 271.304 826.853 267.215C825.494 264.624 820.921 262.225 818.126 262.571C815.645 262.877 815.723 266.53 816.008 268.379C816.686 272.794 819.098 274.948 822.543 277.354C826.223 279.924 830.14 280.764 834.601 280.198C838.139 279.749 840.906 278.06 842.012 274.52C843.483 269.815 843.803 265.662 843.218 260.791C842.989 258.889 841.971 257.58 841.058 256.025C840.46 255.008 839.423 254.744 838.338 254.405C836.288 253.764 835.517 255.954 835.294 257.597C834.958 260.074 835.953 263.435 837.698 265.143C840.633 268.017 844.354 268.918 848.186 270.116C851.092 271.023 854.727 271.493 856.297 268.474C857.615 265.936 857.977 263.443 856.683 260.908C856.082 259.732 854.613 257.509 853.567 256.215" stroke="#EDCD70" stroke-width="4" stroke-miterlimit="2.61313" stroke-linecap="round"/>
<path d="M904.68 491.032C908.025 496.265 912.157 498.279 918.107 499.473C921.183 500.09 926.866 501.184 929.053 498.033C931.932 493.897 930.502 487.183 928.361 483.094C927.005 480.503 922.428 478.104 919.633 478.45C917.152 478.756 917.23 482.409 917.515 484.258C918.193 488.673 920.605 490.827 924.052 493.233C927.734 495.803 931.646 496.643 936.113 496.077C939.647 495.628 942.415 493.939 943.523 490.399C944.99 485.694 945.313 481.54 944.722 476.67C944.501 474.768 943.476 473.459 942.563 471.904C941.963 470.887 940.93 470.623 939.841 470.284C937.792 469.643 937.026 471.833 936.805 473.475C936.463 475.952 937.46 479.314 939.204 481.022C942.138 483.896 945.857 484.797 949.696 485.995C952.603 486.902 956.229 487.372 957.807 484.352C959.118 481.814 959.487 479.322 958.186 476.787C957.586 475.611 956.119 473.388 955.076 472.094" stroke="#EDCD70" stroke-width="4" stroke-miterlimit="2.61313" stroke-linecap="round"/>
<path d="M389.062 30.4443C385.064 35.1975 384.373 39.7411 385.009 45.7758C385.337 48.8939 385.988 54.6439 389.65 55.794C394.456 57.3037 400.441 53.9396 403.705 50.6729C405.773 48.6023 406.698 43.5229 405.534 40.9587C404.502 38.6839 401.039 39.8474 399.357 40.6706C395.345 42.635 394.008 45.5797 392.738 49.5847C391.383 53.8626 391.75 57.8512 393.621 61.9395C395.105 65.1814 397.543 67.3167 401.253 67.3167C406.183 67.3167 410.244 66.3834 414.719 64.372C416.467 63.5863 417.413 62.2236 418.625 60.8888C419.419 60.0147 419.361 58.9461 419.361 57.8105C419.361 55.6631 417.04 55.581 415.405 55.8581C412.941 56.2759 410.028 58.2284 408.917 60.4031C407.05 64.0612 407.3 67.88 407.3 71.8937C407.3 74.938 407.936 78.5466 411.287 79.1434C414.103 79.6447 416.59 79.2469 418.625 77.2549C419.568 76.3311 421.252 74.2659 422.175 72.882" stroke="#F0C449" stroke-width="4" stroke-miterlimit="2.61313" stroke-linecap="round"/>
<path d="M193.431 452.977C189.433 457.73 188.742 462.273 189.378 468.308C189.706 471.426 190.357 477.176 194.019 478.327C198.826 479.836 204.81 476.472 208.074 473.205C210.142 471.134 211.067 466.055 209.904 463.491C208.871 461.216 205.408 462.379 203.726 463.203C199.714 465.167 198.377 468.112 197.107 472.117C195.752 476.395 196.119 480.383 197.99 484.472C199.474 487.714 201.912 489.848 205.622 489.848C210.552 489.848 214.614 488.916 219.088 486.905C220.836 486.119 221.783 484.756 222.994 483.421C223.788 482.546 223.73 481.478 223.73 480.342C223.73 478.196 221.409 478.113 219.775 478.39C217.31 478.808 214.398 480.76 213.287 482.936C211.419 486.594 211.669 490.412 211.669 494.426C211.669 497.471 212.305 501.079 215.656 501.676C218.473 502.177 220.96 501.779 222.994 499.787C223.937 498.864 225.621 496.798 226.544 495.414" stroke="#F0C449" stroke-width="4" stroke-miterlimit="2.61313" stroke-linecap="round"/>
<path d="M679.171 295.218C691.403 295.218 701.318 285.305 701.318 273.077C701.318 260.849 691.403 250.936 679.171 250.936C666.94 250.936 657.024 260.849 657.024 273.077C657.024 285.305 666.94 295.218 679.171 295.218Z" stroke="#F0C449" stroke-width="4"/>
<path d="M934.783 141.151C937.332 141.151 939.397 139.086 939.397 136.539C939.397 133.991 937.332 131.926 934.783 131.926C932.235 131.926 930.169 133.991 930.169 136.539C930.169 139.086 932.235 141.151 934.783 141.151Z" stroke="#F0C449" stroke-width="4"/>
<path d="M677.416 81.9732C677.969 80.2733 680.374 80.2733 680.926 81.9732L682.071 85.4971C682.319 86.2573 683.027 86.772 683.827 86.772H687.533C689.321 86.772 690.065 89.0592 688.618 90.1099L685.62 92.2873C684.973 92.7578 684.702 93.5899 684.949 94.3511L686.094 97.8743C686.647 99.5746 684.7 100.988 683.254 99.9371L680.256 97.7599C679.609 97.2894 678.733 97.2894 678.086 97.7599L675.088 99.9371C673.642 100.988 671.696 99.5746 672.248 97.8743L673.394 94.3511C673.64 93.5899 673.37 92.7578 672.723 92.2873L669.725 90.1099C668.278 89.0592 669.021 86.772 670.809 86.772H674.516C675.315 86.772 676.024 86.2573 676.271 85.4971L677.416 81.9732Z" fill="#828282"/>
<path d="M677.416 81.9732C677.969 80.2733 680.374 80.2733 680.926 81.9732L682.071 85.4971C682.319 86.2573 683.027 86.772 683.827 86.772H687.533C689.321 86.772 690.065 89.0592 688.618 90.1099L685.62 92.2873C684.973 92.7578 684.702 93.5899 684.949 94.3511L686.094 97.8743C686.647 99.5746 684.7 100.988 683.254 99.9371L680.256 97.7599C679.609 97.2894 678.733 97.2894 678.086 97.7599L675.088 99.9371C673.642 100.988 671.696 99.5746 672.248 97.8743L673.394 94.3511C673.64 93.5899 673.37 92.7578 672.723 92.2873L669.725 90.1099C668.278 89.0592 669.021 86.772 670.809 86.772H674.516C675.315 86.772 676.024 86.2573 676.271 85.4971L677.416 81.9732Z" fill="#828282"/>
<path d="M677.416 81.9732C677.969 80.2733 680.374 80.2733 680.926 81.9732L682.071 85.4971C682.319 86.2573 683.027 86.772 683.827 86.772H687.533C689.321 86.772 690.065 89.0592 688.618 90.1099L685.62 92.2873C684.973 92.7578 684.702 93.5899 684.949 94.3511L686.094 97.8743C686.647 99.5746 684.7 100.988 683.254 99.9371L680.256 97.7599C679.609 97.2894 678.733 97.2894 678.086 97.7599L675.088 99.9371C673.642 100.988 671.696 99.5746 672.248 97.8743L673.394 94.3511C673.64 93.5899 673.37 92.7578 672.723 92.2873L669.725 90.1099C668.278 89.0592 669.021 86.772 670.809 86.772H674.516C675.315 86.772 676.024 86.2573 676.271 85.4971L677.416 81.9732Z" fill="#828282"/>
<path d="M677.416 81.9732C677.969 80.2733 680.374 80.2733 680.926 81.9732L682.071 85.4971C682.319 86.2573 683.027 86.772 683.827 86.772H687.533C689.321 86.772 690.065 89.0592 688.618 90.1099L685.62 92.2873C684.973 92.7578 684.702 93.5899 684.949 94.3511L686.094 97.8743C686.647 99.5746 684.7 100.988 683.254 99.9371L680.256 97.7599C679.609 97.2894 678.733 97.2894 678.086 97.7599L675.088 99.9371C673.642 100.988 671.696 99.5746 672.248 97.8743L673.394 94.3511C673.64 93.5899 673.37 92.7578 672.723 92.2873L669.725 90.1099C668.278 89.0592 669.021 86.772 670.809 86.772H674.516C675.315 86.772 676.024 86.2573 676.271 85.4971L677.416 81.9732Z" fill="#666E7D"/>
<path d="M340.599 62.5991C341.151 60.8992 343.556 60.8992 344.109 62.5991L348.569 76.3226C348.816 77.0828 349.525 77.5976 350.325 77.5976H364.757C366.546 77.5976 367.289 79.8848 365.843 80.9354L354.166 89.4169C353.519 89.8868 353.248 90.7196 353.496 91.4799L357.955 105.203C358.508 106.903 356.562 108.316 355.115 107.267L343.439 98.7846C342.792 98.315 341.916 98.315 341.269 98.7846L329.593 107.267C328.146 108.316 326.2 106.903 326.752 105.203L331.212 91.4799C331.459 90.7196 331.189 89.8868 330.542 89.4169L318.865 80.9354C317.419 79.8848 318.162 77.5976 319.95 77.5976H334.383C335.183 77.5976 335.892 77.0828 336.139 76.3226L340.599 62.5991Z" fill="#2D3A93"/>
<path d="M959.791 170.539C960.344 168.839 962.744 168.839 963.297 170.539L964.442 174.063C964.691 174.823 965.401 175.338 966.204 175.338H969.905C971.695 175.338 972.433 177.625 970.993 178.676L967.994 180.853C967.348 181.324 967.072 182.156 967.321 182.917L968.465 186.44C969.019 188.14 967.072 189.554 965.623 188.503L962.633 186.326C961.978 185.855 961.11 185.855 960.455 186.326L957.465 188.503C956.016 189.554 954.069 188.14 954.623 186.44L955.767 182.917C956.017 182.156 955.74 181.324 955.094 180.853L952.095 178.676C950.655 177.625 951.393 175.338 953.183 175.338H956.884C957.687 175.338 958.397 174.823 958.646 174.063L959.791 170.539Z" fill="#EDCD70"/>
<path d="M389.507 143.784C390.06 142.084 392.464 142.084 393.017 143.784L394.162 147.308C394.41 148.068 395.118 148.583 395.917 148.583H399.624C401.412 148.583 402.156 150.87 400.709 151.921L397.71 154.098C397.064 154.569 396.793 155.401 397.04 156.162L398.185 159.685C398.738 161.385 396.791 162.799 395.345 161.748L392.347 159.571C391.7 159.1 390.824 159.1 390.177 159.571L387.179 161.748C385.733 162.799 383.786 161.385 384.339 159.685L385.484 156.162C385.731 155.401 385.46 154.569 384.814 154.098L381.815 151.921C380.368 150.87 381.112 148.583 382.9 148.583H386.607C387.406 148.583 388.114 148.068 388.362 147.308L389.507 143.784Z" fill="#B6BECF"/>
<path d="M197.567 73.6704C198.12 71.9705 200.524 71.9705 201.077 73.6704L202.222 77.1943C202.47 77.9545 203.178 78.4692 203.977 78.4692H207.684C209.472 78.4692 210.216 80.7565 208.769 81.8071L205.77 83.9849C205.124 84.4548 204.853 85.2877 205.1 86.0479L206.245 89.5718C206.798 91.2717 204.851 92.6852 203.405 91.6346L200.407 89.4568C199.76 88.9869 198.884 88.9869 198.237 89.4568L195.239 91.6346C193.793 92.6852 191.847 91.2717 192.399 89.5718L193.544 86.0479C193.791 85.2877 193.52 84.4548 192.874 83.9849L189.875 81.8071C188.429 80.7565 189.172 78.4692 190.96 78.4692H194.667C195.466 78.4692 196.174 77.9545 196.422 77.1943L197.567 73.6704Z" fill="#666E7D"/>
<path d="M158.81 399.334C159.363 397.634 161.768 397.634 162.32 399.334L163.466 402.858C163.713 403.618 164.422 404.133 165.221 404.133H168.927C170.715 404.133 171.459 406.42 170.012 407.471L167.014 409.648C166.367 410.119 166.096 410.951 166.343 411.712L167.488 415.235C168.041 416.935 166.095 418.349 164.649 417.298L161.65 415.121C161.003 414.65 160.127 414.65 159.48 415.121L156.482 417.298C155.036 418.349 153.09 416.935 153.642 415.235L154.788 411.712C155.034 410.951 154.764 410.119 154.117 409.648L151.119 407.471C149.672 406.42 150.415 404.133 152.203 404.133H155.91C156.709 404.133 157.418 403.618 157.665 402.858L158.81 399.334Z" fill="#F0C449"/>
<path d="M653.424 164.081C653.977 162.381 656.382 162.381 656.934 164.081L661.602 178.441C661.849 179.203 662.558 179.716 663.357 179.716H678.46C680.249 179.716 680.992 182.004 679.546 183.054L667.327 191.93C666.68 192.4 666.409 193.233 666.656 193.993L671.323 208.354C671.876 210.054 669.93 211.467 668.483 210.417L656.264 201.541C655.618 201.072 654.741 201.072 654.094 201.541L641.875 210.417C640.428 211.467 638.482 210.054 639.035 208.354L643.703 193.993C643.95 193.233 643.679 192.4 643.032 191.93L630.813 183.054C629.367 182.004 630.11 179.716 631.898 179.716H647.001C647.801 179.716 648.509 179.203 648.757 178.441L653.424 164.081Z" fill="#B6BECF"/>
<path d="M836.968 71.4978C836.968 70.224 835.935 69.1914 834.661 69.1914C833.387 69.1914 832.354 70.224 832.354 71.4978V82.5685C832.354 83.8423 833.387 84.8749 834.661 84.8749C835.935 84.8749 836.968 83.8423 836.968 82.5685V71.4978Z" fill="#2D3A93"/>
<path d="M858.639 84.3905C859.639 83.6022 859.812 82.152 859.023 81.1515C858.234 80.1509 856.784 79.9789 855.783 80.7673L847.085 87.6189C846.084 88.4072 845.912 89.8574 846.701 90.8579C847.489 91.8584 848.94 92.0304 849.941 91.2421L858.639 84.3905Z" fill="#2D3A93"/>
<path d="M810.173 84.3905C809.173 83.6021 809 82.152 809.789 81.1515C810.578 80.1509 812.028 79.9789 813.029 80.7673L821.727 87.6189C822.728 88.4072 822.9 89.8574 822.111 90.8579C821.323 91.8584 819.872 92.0304 818.871 91.2421L810.173 84.3905Z" fill="#2D3A93"/>
<path d="M862.116 108.482C863.368 108.717 864.573 107.893 864.808 106.641C865.043 105.389 864.219 104.184 862.967 103.949L852.083 101.907C850.831 101.672 849.625 102.496 849.39 103.748C849.155 105 849.98 106.206 851.232 106.441L862.116 108.482Z" fill="#2D3A93"/>
<path d="M844.624 127.527C845.177 128.674 846.556 129.156 847.704 128.603C848.851 128.05 849.333 126.671 848.78 125.524L843.971 115.552C843.418 114.404 842.039 113.922 840.891 114.475C839.744 115.029 839.262 116.407 839.815 117.555L844.624 127.527Z" fill="#2D3A93"/>
<path d="M819.484 125.309C818.885 126.433 819.31 127.83 820.435 128.43C821.559 129.029 822.956 128.603 823.556 127.479L828.766 117.711C829.365 116.587 828.94 115.19 827.815 114.59C826.691 113.991 825.294 114.416 824.694 115.54L819.484 125.309Z" fill="#2D3A93"/>
<path d="M805.101 103.679C803.844 103.889 802.995 105.077 803.204 106.333C803.414 107.59 804.602 108.439 805.859 108.229L816.782 106.411C818.039 106.201 818.888 105.013 818.679 103.757C818.469 102.5 817.281 101.651 816.024 101.86L805.101 103.679Z" fill="#2D3A93"/>
<path d="M334.972 164.216H312.825V186.357H334.972V164.216Z" fill="#F0C449"/>
<path d="M968.927 386.553H946.78V408.694H968.927V386.553Z" fill="#F0C449"/>
<path d="M765.914 126.391H743.767V148.532H765.914V126.391Z" fill="#F0C449"/>
<path d="M128.268 445.596H106.121V467.737H128.268V445.596Z" fill="#F0C449"/>
<path d="M972.618 67.3467H950.471V89.4881H972.618V67.3467Z" fill="#2D3A93"/>
<path d="M446.629 106.094H424.482V128.235H446.629V106.094Z" fill="#2D3A93"/>
<path d="M802.825 25.832H780.678V47.9734H802.825V25.832Z" fill="#ABB1DF"/>
<path d="M765.362 223.721C766.427 221.876 769.091 221.876 770.157 223.721L775.75 233.408C776.816 235.253 775.485 237.559 773.353 237.559H762.165C760.034 237.559 758.702 235.253 759.768 233.408L765.362 223.721Z" fill="#C4C4C4"/>
<path d="M765.362 223.721C766.427 221.876 769.091 221.876 770.157 223.721L775.75 233.408C776.816 235.253 775.485 237.559 773.353 237.559H762.165C760.034 237.559 758.702 235.253 759.768 233.408L765.362 223.721Z" fill="#2D3A93"/>
<path d="M318.733 8.7647C319.799 6.91958 322.462 6.91958 323.528 8.7647L329.122 18.4516C330.187 20.2967 328.856 22.6031 326.724 22.6031H315.536C313.405 22.6031 312.073 20.2967 313.139 18.4516L318.733 8.7647Z" fill="#F0C449"/>
<path d="M66.35 156.374C67.4155 154.529 70.0794 154.529 71.145 156.374L80.3353 172.288C81.4009 174.133 80.0689 176.44 77.9378 176.44H59.5572C57.4261 176.44 56.0941 174.133 57.1597 172.288L66.35 156.374Z" fill="#2D3A93"/>
<path d="M528.667 90.8721C529.733 89.027 532.396 89.027 533.462 90.8721L542.652 106.786C543.718 108.631 542.386 110.938 540.254 110.938H521.874C519.743 110.938 518.411 108.631 519.477 106.786L528.667 90.8721Z" fill="#F0C449"/>
<path d="M63.5814 363.027C64.647 361.182 67.3109 361.182 68.3764 363.027L77.5668 378.942C78.6323 380.787 77.3003 383.093 75.1693 383.093H56.7886C54.6575 383.093 53.3256 380.787 54.3911 378.942L63.5814 363.027Z" fill="#ABB1DF"/>
<path d="M607.198 13.7665C609.12 12.847 611.317 14.3528 611.153 16.477L608.251 53.9158C608.086 56.04 605.683 57.1894 603.926 55.9847L572.946 34.7526C571.188 33.5479 571.394 30.8927 573.316 29.9732L607.198 13.7665Z" fill="#F0C449"/>
<path d="M900.053 163.641C901.976 162.721 904.173 164.227 904.008 166.351L902.536 185.346C902.371 187.47 899.968 188.62 898.211 187.415L882.492 176.642C880.735 175.437 880.941 172.782 882.863 171.863L900.053 163.641Z" fill="#B6BECF"/>
<path d="M155.122 15.1903C153.55 17.9116 154.483 21.3912 157.204 22.9623L160.248 24.7189C161.369 25.3658 161.753 26.7987 161.106 27.9192C160.459 29.0397 159.026 29.4236 157.905 28.7767L154.933 27.0617C152.171 25.4675 148.64 26.4136 147.046 29.1746L145.096 32.5509C144.366 33.8158 142.748 34.2493 141.483 33.519C140.218 32.7887 139.784 31.1712 140.514 29.9063L142.464 26.5299C144.058 23.7689 143.112 20.2383 140.351 18.6442L137.379 16.9291C136.258 16.2822 135.874 14.8494 136.522 13.729C137.169 12.6084 138.602 12.2245 139.722 12.8714L142.766 14.6281C145.488 16.1992 148.968 15.2669 150.54 12.5456L152.063 9.90873C152.793 8.64378 154.411 8.21039 155.676 8.9407C156.941 9.67099 157.375 11.2885 156.644 12.5534L155.122 15.1903Z" fill="#2D3A93"/>
<path d="M275.084 99.1424C273.512 101.864 274.445 105.343 277.166 106.914L280.21 108.671C281.331 109.318 281.715 110.751 281.068 111.871C280.421 112.992 278.988 113.376 277.867 112.729L274.895 111.014C272.133 109.42 268.602 110.365 267.008 113.127L265.058 116.503C264.327 117.768 262.71 118.202 261.445 117.471C260.18 116.74 259.746 115.123 260.476 113.858L262.426 110.482C264.02 107.721 263.074 104.191 260.312 102.596L257.341 100.881C256.22 100.234 255.836 98.8011 256.484 97.6811C257.131 96.5602 258.564 96.1764 259.684 96.8231L262.728 98.5806C265.45 100.152 268.93 99.219 270.502 96.4974L272.024 93.8608C272.755 92.5959 274.373 92.1624 275.638 92.893C276.903 93.6228 277.337 95.2409 276.606 96.5058L275.084 99.1424Z" fill="#828282"/>
<path d="M275.084 99.1424C273.512 101.864 274.445 105.343 277.166 106.914L280.21 108.671C281.331 109.318 281.715 110.751 281.068 111.871C280.421 112.992 278.988 113.376 277.867 112.729L274.895 111.014C272.133 109.42 268.602 110.365 267.008 113.127L265.058 116.503C264.327 117.768 262.71 118.202 261.445 117.471C260.18 116.74 259.746 115.123 260.476 113.858L262.426 110.482C264.02 107.721 263.074 104.191 260.312 102.596L257.341 100.881C256.22 100.234 255.836 98.8011 256.484 97.6811C257.131 96.5602 258.564 96.1764 259.684 96.8231L262.728 98.5806C265.45 100.152 268.93 99.219 270.502 96.4974L272.024 93.8608C272.755 92.5959 274.373 92.1624 275.638 92.893C276.903 93.6228 277.337 95.2409 276.606 96.5058L275.084 99.1424Z" fill="#B6BECF"/>
<path d="M220.639 390.672C219.068 393.393 220.001 396.872 222.722 398.443L225.765 400.2C226.886 400.848 227.27 402.28 226.623 403.4C225.977 404.521 224.544 404.905 223.422 404.258L220.451 402.543C217.689 400.949 214.158 401.895 212.564 404.656L210.614 408.032C209.883 409.297 208.266 409.731 207 409C205.735 408.27 205.302 406.652 206.031 405.387L207.981 402.011C209.576 399.251 208.63 395.72 205.868 394.126L202.897 392.411C201.776 391.763 201.392 390.33 202.039 389.21C202.686 388.09 204.119 387.706 205.24 388.352L208.284 390.11C211.005 391.681 214.486 390.748 216.058 388.027L217.58 385.39C218.311 384.125 219.929 383.692 221.194 384.422C222.459 385.152 222.893 386.77 222.162 388.035L220.639 390.672Z" fill="#B6BECF"/>
<path d="M643.751 456.667C639.754 461.42 639.063 465.964 639.698 471.998C640.026 475.116 640.677 480.867 644.339 482.017C649.146 483.526 655.13 480.163 658.394 476.896C660.462 474.825 661.388 469.745 660.224 467.181C659.191 464.906 655.728 466.07 654.047 466.894C650.035 468.858 648.697 471.803 647.428 475.807C646.072 480.085 646.439 484.073 648.311 488.162C649.795 491.404 652.233 493.539 655.942 493.539C660.873 493.539 664.934 492.606 669.408 490.595C671.156 489.809 672.103 488.446 673.315 487.111C674.108 486.237 674.05 485.169 674.05 484.033C674.05 481.886 671.729 481.804 670.095 482.081C667.63 482.499 664.718 484.451 663.607 486.626C661.739 490.284 661.989 494.103 661.989 498.117C661.989 501.161 662.625 504.769 665.977 505.366C668.793 505.867 671.28 505.469 673.315 503.478C674.258 502.554 675.942 500.489 676.865 499.105" stroke="#ABB1DF" stroke-width="4" stroke-miterlimit="2.61313" stroke-linecap="round"/>
<path d="M682.508 347.805C678.511 352.558 677.819 357.101 678.455 363.136C678.783 366.254 679.434 372.004 683.096 373.155C687.903 374.664 693.887 371.3 697.151 368.034C699.219 365.963 700.144 360.883 698.981 358.319C697.948 356.044 694.485 357.207 692.804 358.031C688.791 359.995 687.454 362.94 686.184 366.945C684.829 371.223 685.196 375.211 687.068 379.3C688.551 382.542 690.989 384.677 694.699 384.677C699.629 384.677 703.691 383.744 708.165 381.733C709.913 380.947 710.86 379.584 712.071 378.249C712.865 377.375 712.807 376.306 712.807 375.171C712.807 373.024 710.486 372.942 708.852 373.218C706.387 373.636 703.475 375.588 702.364 377.764C700.496 381.422 700.746 385.24 700.746 389.254C700.746 392.299 701.382 395.907 704.733 396.504C707.55 397.005 710.037 396.607 712.071 394.615C713.014 393.692 714.699 391.626 715.621 390.242" stroke="#F0C449" stroke-width="4" stroke-miterlimit="2.61313" stroke-linecap="round"/>
<path d="M781.691 396.565C782.244 394.865 784.649 394.865 785.201 396.565L789.661 410.288C789.908 411.049 790.617 411.563 791.417 411.563H805.85C807.638 411.563 808.381 413.851 806.935 414.901L795.258 423.383C794.611 423.853 794.341 424.686 794.588 425.446L799.048 439.169C799.6 440.869 797.654 442.283 796.207 441.233L784.531 432.751C783.884 432.281 783.008 432.281 782.361 432.751L770.685 441.233C769.238 442.283 767.292 440.869 767.845 439.169L772.304 425.446C772.552 424.686 772.281 423.853 771.634 423.383L759.958 414.901C758.512 413.851 759.254 411.563 761.043 411.563H775.475C776.275 411.563 776.984 411.049 777.231 410.288L781.691 396.565Z" fill="#2D3A93"/>
<path d="M830.599 477.751C831.152 476.051 833.557 476.051 834.109 477.751L835.255 481.275C835.502 482.035 836.211 482.55 837.01 482.55H840.717C842.504 482.55 843.248 484.837 841.801 485.888L838.803 488.065C838.156 488.535 837.885 489.368 838.132 490.129L839.277 493.652C839.83 495.352 837.884 496.766 836.438 495.715L833.439 493.538C832.793 493.067 831.916 493.067 831.269 493.538L828.271 495.715C826.825 496.766 824.879 495.352 825.431 493.652L826.577 490.129C826.823 489.368 826.553 488.535 825.906 488.065L822.908 485.888C821.461 484.837 822.204 482.55 823.992 482.55H827.699C828.498 482.55 829.207 482.035 829.454 481.275L830.599 477.751Z" fill="#B6BECF"/>
<path d="M638.659 407.637C639.212 405.936 641.617 405.936 642.169 407.637L643.315 411.161C643.562 411.921 644.271 412.436 645.07 412.436H648.777C650.564 412.436 651.308 414.723 649.861 415.774L646.863 417.951C646.216 418.421 645.945 419.253 646.192 420.015L647.337 423.538C647.89 425.238 645.944 426.651 644.498 425.601L641.5 423.423C640.853 422.953 639.976 422.953 639.329 423.423L636.331 425.601C634.885 426.651 632.939 425.238 633.492 423.538L634.637 420.015C634.883 419.253 634.613 418.421 633.966 417.951L630.968 415.774C629.521 414.723 630.265 412.436 632.052 412.436H635.759C636.558 412.436 637.267 411.921 637.514 411.161L638.659 407.637Z" fill="#666E7D"/>
<path d="M776.064 498.182H753.917V520.323H776.064V498.182Z" fill="#F0C449"/>
<path d="M716.176 433.109C714.605 435.831 715.538 439.31 718.259 440.881L721.302 442.637C722.423 443.285 722.807 444.718 722.16 445.838C721.514 446.959 720.081 447.342 718.959 446.696L715.988 444.981C713.226 443.387 709.695 444.332 708.101 447.093L706.151 450.47C705.42 451.735 703.803 452.168 702.537 451.438C701.272 450.707 700.839 449.09 701.569 447.825L703.518 444.448C705.113 441.688 704.167 438.157 701.405 436.563L698.434 434.848C697.313 434.201 696.929 432.768 697.577 431.648C698.223 430.527 699.657 430.143 700.777 430.79L703.821 432.547C706.542 434.119 710.023 433.186 711.595 430.464L713.117 427.828C713.848 426.563 715.466 426.129 716.731 426.86C717.996 427.59 718.43 429.208 717.699 430.473L716.176 433.109Z" fill="#828282"/>
<path d="M716.176 433.109C714.605 435.831 715.538 439.31 718.259 440.881L721.302 442.637C722.423 443.285 722.807 444.718 722.16 445.838C721.514 446.959 720.081 447.342 718.959 446.696L715.988 444.981C713.226 443.387 709.695 444.332 708.101 447.093L706.151 450.47C705.42 451.735 703.803 452.168 702.537 451.438C701.272 450.707 700.839 449.09 701.569 447.825L703.518 444.448C705.113 441.688 704.167 438.157 701.405 436.563L698.434 434.848C697.313 434.201 696.929 432.768 697.577 431.648C698.223 430.527 699.657 430.143 700.777 430.79L703.821 432.547C706.542 434.119 710.023 433.186 711.595 430.464L713.117 427.828C713.848 426.563 715.466 426.129 716.731 426.86C717.996 427.59 718.43 429.208 717.699 430.473L716.176 433.109Z" fill="#B6BECF"/>
<path d="M510.395 160.954C508.823 163.676 509.756 167.155 512.477 168.726L515.521 170.482C516.642 171.13 517.026 172.563 516.379 173.683C515.732 174.803 514.299 175.187 513.178 174.541L510.206 172.825C507.444 171.231 503.913 172.177 502.319 174.938L500.369 178.315C499.639 179.58 498.021 180.013 496.756 179.282C495.491 178.552 495.057 176.935 495.787 175.67L497.737 172.293C499.331 169.533 498.385 166.002 495.623 164.408L492.652 162.693C491.531 162.045 491.147 160.613 491.795 159.493C492.442 158.372 493.875 157.988 494.995 158.635L498.039 160.392C500.761 161.963 504.241 161.031 505.813 158.309L507.335 155.672C508.066 154.408 509.684 153.974 510.949 154.705C512.214 155.434 512.648 157.052 511.917 158.317L510.395 160.954Z" fill="#B6BECF"/>
<path d="M515.931 37.3309C514.36 40.0522 515.293 43.5318 518.014 45.1029L521.057 46.8596C522.178 47.5065 522.562 48.9393 521.915 50.0598C521.269 51.1804 519.836 51.5642 518.714 50.9173L515.743 49.2023C512.981 47.6081 509.449 48.5542 507.856 51.3152L505.906 54.6915C505.175 55.9565 503.557 56.3899 502.292 55.6596C501.027 54.9293 500.593 53.3118 501.323 52.0469L503.273 48.6705C504.868 45.9095 503.922 42.3789 501.16 40.7848L498.189 39.0698C497.068 38.4229 496.684 36.99 497.331 35.8696C497.978 34.749 499.411 34.3652 500.532 35.0121L503.576 36.7687C506.297 38.3398 509.778 37.4075 511.35 34.6862L512.872 32.0494C513.603 30.7844 515.221 30.351 516.486 31.0813C517.751 31.8116 518.185 33.4291 517.454 34.6941L515.931 37.3309Z" fill="#B6BECF"/>
<path d="M43.4643 278.119C41.8928 280.841 42.8255 284.32 45.5473 285.891L48.5908 287.647C49.7116 288.295 50.0956 289.728 49.4485 290.848C48.8014 291.968 47.3683 292.352 46.2475 291.706L43.2762 289.99C40.5145 288.396 36.9829 289.342 35.3885 292.103L33.4387 295.48C32.7082 296.745 31.0903 297.178 29.8251 296.447C28.5598 295.717 28.1263 294.1 28.8569 292.835L30.8066 289.458C32.4011 286.698 31.4549 283.167 28.6931 281.573L25.7219 279.858C24.6011 279.21 24.217 277.778 24.8642 276.658C25.5112 275.537 26.9444 275.153 28.0651 275.8L31.1086 277.557C33.8305 279.128 37.311 278.196 38.8825 275.474L40.4053 272.837C41.1358 271.573 42.7536 271.139 44.0188 271.87C45.2842 272.599 45.7176 274.218 44.9871 275.482L43.4643 278.119Z" fill="#2D3A93"/>
<path d="M275.084 218.153C273.512 220.875 274.445 224.354 277.166 225.925L280.21 227.681C281.331 228.329 281.715 229.762 281.068 230.882C280.421 232.003 278.988 232.386 277.867 231.74L274.895 230.025C272.133 228.431 268.602 229.376 267.008 232.137L265.058 235.514C264.327 236.779 262.71 237.212 261.445 236.482C260.18 235.751 259.746 234.134 260.476 232.869L262.426 229.492C264.02 226.732 263.074 223.201 260.312 221.607L257.341 219.892C256.22 219.245 255.836 217.812 256.484 216.692C257.131 215.571 258.564 215.187 259.684 215.834L262.728 217.591C265.45 219.162 268.93 218.23 270.502 215.508L272.024 212.872C272.755 211.607 274.373 211.173 275.638 211.904C276.903 212.634 277.337 214.252 276.606 215.517L275.084 218.153Z" fill="#F0C449"/>
<path d="M872.927 385.249C871.385 387.919 872.3 391.333 874.971 392.875L877.957 394.598C879.057 395.233 879.433 396.639 878.799 397.739C878.164 398.838 876.757 399.215 875.657 398.58L872.742 396.897C870.032 395.334 866.567 396.262 865.003 398.97L863.089 402.283C862.373 403.525 860.785 403.95 859.544 403.234C858.303 402.517 857.877 400.93 858.593 399.689L860.507 396.376C862.071 393.667 861.143 390.202 858.433 388.638L855.518 386.955C854.418 386.32 854.041 384.914 854.676 383.815C855.311 382.716 856.717 382.338 857.817 382.974L860.803 384.697C863.474 386.239 866.889 385.324 868.431 382.654L869.925 380.066C870.642 378.825 872.229 378.4 873.471 379.117C874.713 379.834 875.138 381.42 874.421 382.661L872.927 385.249Z" fill="#ABB1DF"/>
<path d="M961.904 247.714C959.865 251.244 961.074 255.758 964.608 257.796L968.853 260.247C970.348 261.111 970.864 263.023 969.997 264.519C969.139 266.015 967.229 266.527 965.724 265.664L961.48 263.212C957.945 261.174 953.433 262.384 951.394 265.914L948.634 270.702C947.656 272.39 945.497 272.968 943.808 271.993C942.12 271.019 941.538 268.859 942.516 267.171L945.285 262.384C947.315 258.853 946.106 254.34 942.581 252.301L938.327 249.85C936.832 248.986 936.324 247.074 937.183 245.578C938.05 244.083 939.96 243.57 941.455 244.434L945.709 246.886C949.234 248.924 953.756 247.714 955.795 244.184L957.927 240.479C958.905 238.791 961.064 238.213 962.753 239.187C964.442 240.162 965.023 242.321 964.045 244.009L961.904 247.714Z" fill="#2D3A93"/>
<path d="M179.943 355.185C186.569 355.185 191.94 349.815 191.94 343.192C191.94 336.568 186.569 331.198 179.943 331.198C173.318 331.198 167.947 336.568 167.947 343.192C167.947 349.815 173.318 355.185 179.943 355.185Z" fill="#666E7D"/>
<path d="M378.343 228.795C384.968 228.795 390.339 223.426 390.339 216.802C390.339 210.178 384.968 204.809 378.343 204.809C371.718 204.809 366.347 210.178 366.347 216.802C366.347 223.426 371.718 228.795 378.343 228.795Z" fill="#2D3A93"/>
<path d="M172.561 239.865C179.187 239.865 184.557 234.496 184.557 227.872C184.557 221.248 179.187 215.879 172.561 215.879C165.936 215.879 160.565 221.248 160.565 227.872C160.565 234.496 165.936 239.865 172.561 239.865Z" fill="#828282"/>
<path d="M172.561 239.865C179.187 239.865 184.557 234.496 184.557 227.872C184.557 221.248 179.187 215.879 172.561 215.879C165.936 215.879 160.565 221.248 160.565 227.872C160.565 234.496 165.936 239.865 172.561 239.865Z" fill="#ABB1DF"/>
<path d="M576.742 215.879C591.012 215.879 602.58 204.314 602.58 190.047C602.58 175.781 591.012 164.216 576.742 164.216C562.472 164.216 550.904 175.781 550.904 190.047C550.904 204.314 562.472 215.879 576.742 215.879Z" fill="#2D3A93"/>
<path d="M297.138 318.283C305.801 318.283 312.825 311.261 312.825 302.6C312.825 293.938 305.801 286.916 297.138 286.916C288.474 286.916 281.45 293.938 281.45 302.6C281.45 311.261 288.474 318.283 297.138 318.283Z" fill="#2D3A93"/>
</g>
<defs>
<clipPath id="clip0">
<rect width="980" height="548" fill="white"/>
</clipPath>
</defs>
</svg>
