<svg width="110" height="110" viewBox="0 0 110 110" fill="none" xmlns="http://www.w3.org/2000/svg">
<path d="M54.9456 88.5327C61.6729 88.5327 67.1423 81.866 67.1423 73.666H42.6943C42.6943 81.7993 48.1637 88.5327 54.9456 88.5327Z" fill="#2E3FB8"/>
<path d="M27.5985 55.2012C23.4418 55.2012 20.0508 59.3345 20.0508 64.4012H35.1461C35.1461 59.3345 31.8098 55.2012 27.5985 55.2012Z" fill="#2E3FB8"/>
<path d="M82.2918 55.2012C78.1351 55.2012 74.7441 59.3345 74.7441 64.4012H89.8395C89.8395 59.3345 86.5032 55.2012 82.2918 55.2012Z" fill="#2E3FB8"/>
<path d="M54.9448 11.4C57.5154 11.4 59.6485 8.86667 59.6485 5.73334C59.6485 2.6 57.5701 0 54.9448 0C52.3743 0 50.2412 2.53334 50.2412 5.73334C50.2412 8.8 52.3743 11.4 54.9448 11.4Z" fill="#2E3FB8"/>
<path d="M107.779 63.1339C106.521 52.6005 104.607 42.0005 103.24 34.9339C101.599 26.5339 95.7465 20.5339 88.6911 20.0005C81.745 19.4672 70.2594 18.8672 54.9453 18.8672C39.6312 18.8672 28.1456 19.4672 21.1995 20.0005C14.1441 20.5339 8.29189 26.5339 6.65109 34.9339C5.28376 42.0005 3.36949 52.6005 2.11154 63.1339C1.23645 70.2672 0.58013 78.6005 0.0331963 88.0672C-0.24027 93.3339 1.18176 98.4005 4.0805 102.334C6.97925 106.267 10.9172 108.601 15.2926 108.801C24.8093 109.334 39.4124 110.001 55 110.001C70.5876 110.001 85.1907 109.334 94.7074 108.801C99.0281 108.534 103.021 106.267 105.919 102.334C108.818 98.4005 110.24 93.3339 109.967 88.0672C109.365 78.6005 108.654 70.2005 107.779 63.1339ZM100.231 96.2005C98.7 98.2672 96.6216 99.4672 94.3245 99.6005C84.8626 100.134 70.4235 100.801 54.9453 100.801C39.4671 100.801 25.0281 100.134 15.5661 99.6005C13.269 99.4672 11.1906 98.2672 9.65923 96.2005C8.12781 94.1339 7.36211 91.4672 7.52619 88.6672C8.01843 79.4672 8.67474 71.3339 9.54984 64.4672C10.7531 54.2672 12.6127 43.9339 13.98 37.0672C14.8551 32.6005 17.9179 29.4672 21.6918 29.1339C28.5284 28.6005 39.8499 28.0005 55 28.0005C70.0954 28.0005 81.4716 28.6005 88.3083 29.1339C92.0274 29.4005 95.1449 32.6005 96.02 37.0672C97.3326 43.9339 99.1922 54.2672 100.45 64.4672C101.271 71.3339 101.927 79.4672 102.474 88.6672C102.474 91.4672 101.708 94.1339 100.231 96.2005Z" fill="#2E3FB8"/>
</svg>
