<svg width="111" height="126" viewBox="0 0 111 126" fill="none" xmlns="http://www.w3.org/2000/svg">
<path d="M10.4134 113.096L0.359375 0.325195H110.839L100.775 113.079L55.5324 125.622L10.4134 113.096Z" fill="#2E3FB8"/>
<path d="M55.6006 50.4022H73.9026L75.1666 36.2392H55.6006V22.4082H90.2826L89.9506 26.1192L86.5506 64.2332H55.6006V50.4022Z" fill="white"/>
<path d="M55.6826 86.3224L55.6216 86.3404L40.2186 82.1814L39.2336 71.1504H25.3516L27.2886 92.8674L55.6196 100.73L55.6826 100.712V86.3224Z" fill="white"/>
<path d="M72.7268 63.6484L71.0608 82.1704L55.6348 86.3344V100.724L83.9888 92.8664L84.1968 90.5294L86.6028 63.6484H72.7268Z" fill="white"/>
<path d="M55.6479 22.4082V36.2392H22.24L21.963 33.1312L21.333 26.1192L21.002 22.4082H55.6479ZM55.601 50.4042V64.2352H40.392L40.115 61.1272L39.484 54.1152L39.154 50.4042H55.601Z" fill="white"/>
</svg>
