<svg width="107" height="107" viewBox="0 0 107 107" fill="none" xmlns="http://www.w3.org/2000/svg">
<path d="M53.0711 106.127V85.5485C74.8531 85.5485 91.7612 63.947 83.3974 41.0217C80.3286 32.5978 73.5293 25.7984 65.0451 22.7297C42.1199 14.426 20.5184 31.274 20.5184 53.056H0C0 18.3372 33.5756 -8.73991 69.9792 2.63246C85.8644 7.62668 98.5605 20.2626 103.495 36.1479C114.867 72.5515 87.7899 106.127 53.0711 106.127Z" fill="#2E3FB8"/>
<path fill-rule="evenodd" clip-rule="evenodd" d="M32.6127 85.6688V65.1504H53.1311V85.6688H32.6127ZM16.908 101.374V85.6688H32.6127V101.374H16.908ZM16.908 85.6688H3.73047V72.4913H16.908V85.6688Z" fill="#2E3FB8"/>
</svg>
