<svg width="51" height="56" viewBox="0 0 51 56" fill="none" xmlns="http://www.w3.org/2000/svg">
<g clip-path="url(#clip0)">
<path opacity="0.8" d="M30.1047 36.407C38.7181 36.407 45.7006 29.4882 45.7006 20.9535C45.7006 12.4188 38.7181 5.5 30.1047 5.5C21.4913 5.5 14.5088 12.4188 14.5088 20.9535C14.5088 29.4882 21.4913 36.407 30.1047 36.407Z" fill="#F2BC22"/>
<path d="M29.1008 36.407C37.7142 36.407 44.6967 29.4882 44.6967 20.9535C44.6967 12.4188 37.7142 5.5 29.1008 5.5C20.4874 5.5 13.5049 12.4188 13.5049 20.9535C13.5049 29.4882 20.4874 36.407 29.1008 36.407Z" stroke="#0015AD" stroke-miterlimit="10" stroke-linecap="round" stroke-linejoin="round"/>
<path d="M45.6244 34.0326L43.0664 32.0078" stroke="#0015AD" stroke-miterlimit="10" stroke-linecap="round" stroke-linejoin="round"/>
<path d="M50.0248 23.9974L46.7881 23.5273" stroke="#0015AD" stroke-miterlimit="10" stroke-linecap="round" stroke-linejoin="round"/>
<path d="M48.7225 13.1367L45.6865 14.3444" stroke="#0015AD" stroke-miterlimit="10" stroke-linecap="round" stroke-linejoin="round"/>
<path d="M42.0734 4.4043L40.0664 6.96421" stroke="#0015AD" stroke-miterlimit="10" stroke-linecap="round" stroke-linejoin="round"/>
<path d="M31.8886 0.181641L31.458 3.396" stroke="#0015AD" stroke-miterlimit="10" stroke-linecap="round" stroke-linejoin="round"/>
<path d="M20.9463 1.61719L22.2088 4.61099" stroke="#0015AD" stroke-miterlimit="10" stroke-linecap="round" stroke-linejoin="round"/>
<path d="M12.2246 8.32422L14.8373 10.2767" stroke="#0015AD" stroke-miterlimit="10" stroke-linecap="round" stroke-linejoin="round"/>
<path d="M8.10156 18.4707L11.3528 18.854" stroke="#0015AD" stroke-miterlimit="10" stroke-linecap="round" stroke-linejoin="round"/>
<path d="M9.69922 29.2931L12.7024 28.0059" stroke="#0015AD" stroke-miterlimit="10" stroke-linecap="round" stroke-linejoin="round"/>
<path d="M26.8828 41.7916L27.2258 38.5664" stroke="#0015AD" stroke-miterlimit="10" stroke-linecap="round" stroke-linejoin="round"/>
<path d="M37.7823 40.0595L36.4395 37.1055" stroke="#0015AD" stroke-miterlimit="10" stroke-linecap="round" stroke-linejoin="round"/>
<path d="M17.4208 41.4702L6.78391 54.6675C5.62352 56.103 3.35748 56.2187 1.71907 54.9206C0.0806543 53.6226 -0.309791 51.4062 0.850598 49.9707L11.4875 36.7734L17.4208 41.4702Z" stroke="#0015AD" stroke-miterlimit="10"/>
<path d="M13.1406 38.0811L17.9719 32.0898L20.581 34.1436L15.7497 40.1456" stroke="#0015AD" stroke-miterlimit="10"/>
<path d="M32.5932 20.8318L28.7107 28.7647L24.3428 21.0813L28.229 13.1484L32.5932 20.8318Z" stroke="#0015AD" stroke-miterlimit="10" stroke-linecap="round" stroke-linejoin="round"/>
<path d="M28.4697 22.2304C29.1811 22.2304 29.7579 21.659 29.7579 20.9541C29.7579 20.2492 29.1811 19.6777 28.4697 19.6777C27.7583 19.6777 27.1816 20.2492 27.1816 20.9541C27.1816 21.659 27.7583 22.2304 28.4697 22.2304Z" fill="white"/>
</g>
<defs>
<clipPath id="clip0">
<rect width="50.2069" height="56" fill="white"/>
</clipPath>
</defs>
</svg>
