<svg width="208" height="213" viewBox="0 0 208 213" fill="none" xmlns="http://www.w3.org/2000/svg">
<path d="M125 8.47993L122.13 13.0699L60.7702 110.9C60.3662 111.56 59.8789 112.165 59.3202 112.7C57.6248 114.432 55.3875 115.531 52.9805 115.815C50.5735 116.099 48.1419 115.55 46.0902 114.26L36.0002 108L14.4002 94.4099C10.2454 91.8057 6.8204 88.1884 4.44677 83.8977C2.07313 79.6069 0.828661 74.7835 0.830161 69.8799C0.816268 63.664 2.54874 57.5691 5.83016 52.2899L33.8302 7.66992C35.174 5.52796 37.0396 3.76214 39.252 2.53784C41.4645 1.31355 43.9515 0.670842 46.4802 0.669922H127.85C128.46 3.24992 126.53 6.04993 125 8.47993Z" fill="#F2BC22"/>
<path d="M207.9 11.5097L197.14 90.9997C196.775 93.6432 195.378 96.0347 193.255 97.6517C191.132 99.2687 188.456 99.9798 185.81 99.6297L179.81 98.8297L159.73 96.1097L127.61 91.7597C124.907 91.3943 122.459 89.9703 120.805 87.8007C119.151 85.6311 118.426 82.8934 118.79 80.1897L127.88 13.0797L129.55 0.679688H198.45C199.811 0.683283 201.155 0.977254 202.393 1.54195C203.631 2.10665 204.734 2.92908 205.628 3.95425C206.523 4.97942 207.188 6.18371 207.58 7.48666C207.972 8.7896 208.081 10.1612 207.9 11.5097Z" fill="#0015AD"/>
<path d="M208 143.09C208.001 149.312 206.247 155.408 202.94 160.68L175 205.3C173.652 207.438 171.786 209.2 169.574 210.424C167.363 211.648 164.878 212.293 162.35 212.3H80.9303C80.3503 209.73 82.2903 206.93 83.8103 204.5L86.6803 199.9L148.06 102C148.461 101.338 148.949 100.732 149.51 100.2C151.203 98.4667 153.439 97.3666 155.845 97.0828C158.25 96.7989 160.681 97.3484 162.73 98.6396L172.79 105L194.4 118.55C198.563 121.15 201.995 124.768 204.374 129.061C206.753 133.354 208.001 138.181 208 143.09Z" fill="#F2BC22"/>
<path d="M89.9999 132.76L80.9099 199.87L79.2399 212.27H10.3599C8.99936 212.266 7.65522 211.972 6.41736 211.408C5.17951 210.843 4.07645 210.02 3.18191 208.995C2.28737 207.97 1.62197 206.766 1.23016 205.463C0.838356 204.16 0.729182 202.788 0.909933 201.44L11.6799 121.91C12.0451 119.27 13.4411 116.882 15.5626 115.268C17.684 113.654 20.3581 112.947 22.9999 113.3L28.9999 114.09L49.0799 116.81L81.1999 121.16C82.5397 121.343 83.8303 121.788 84.9978 122.471C86.1653 123.153 87.187 124.059 88.0042 125.136C88.8215 126.213 89.4184 127.441 89.7609 128.749C90.1033 130.057 90.1845 131.42 89.9999 132.76Z" fill="#0015AD"/>
</svg>
