<svg width="89" height="121" viewBox="0 0 89 121" fill="none" xmlns="http://www.w3.org/2000/svg">
<path fill-rule="evenodd" clip-rule="evenodd" d="M1.10548 65.0036C1.30548 68.5036 4.80548 66.9036 6.40548 65.8036C7.90548 64.7036 8.40548 65.6036 8.50548 63.5036C8.60548 62.1036 8.70548 60.8036 8.70548 59.4036C6.40548 59.2036 3.90548 59.7036 2.00548 61.1036C1.10548 61.8036 -0.794518 64.1036 1.10548 65.0036Z" fill="#F6D2A2"/>
<path d="M3.00545 67.5035C2.30545 67.5035 1.00545 67.2035 0.805451 65.2035C0.205451 64.8035 0.00545193 64.3035 0.00545193 64.0035C-0.0945481 62.8035 1.20545 61.4035 1.90545 60.9035C3.50545 59.7035 5.60545 59.1035 7.80545 59.1035H9.10545V59.4035C9.20545 60.5035 9.10545 61.6035 9.00545 62.6035C9.00545 62.9035 9.00545 63.2035 8.90545 63.5035C8.80545 65.0035 8.50545 65.2035 7.80545 65.5035C7.50545 65.6035 7.20545 65.7035 6.70545 66.1035C6.20545 66.4035 4.50545 67.5035 3.00545 67.5035ZM7.80545 59.7035C5.70545 59.7035 3.80545 60.3035 2.30545 61.4035C1.60545 61.9035 0.605453 63.1035 0.705453 63.9035C0.705453 64.2035 0.905451 64.5035 1.30545 64.7035L1.50545 64.8035V65.0035C1.60545 66.6035 2.40545 66.8035 3.00545 66.8035C4.00545 66.8035 5.40545 66.1035 6.30545 65.5035C6.90545 65.1035 7.30545 65.0035 7.60545 64.9035C8.10545 64.7035 8.20545 64.7035 8.30545 63.5035C8.30545 63.2035 8.30545 62.9035 8.40545 62.6035C8.50545 61.7035 8.50545 60.7035 8.50545 59.8035C8.20545 59.7035 8.00545 59.7035 7.80545 59.7035Z" fill="black"/>
<path fill-rule="evenodd" clip-rule="evenodd" d="M1.10547 65.0031C1.60547 64.8031 2.20547 64.7031 2.50547 64.2031L1.10547 65.0031Z" fill="#C6B198"/>
<path d="M1.10583 65.3037C1.00583 65.3037 0.805832 65.2037 0.805832 65.1037C0.705832 64.9037 0.805833 64.7037 1.00583 64.7037C1.10583 64.7037 1.20583 64.6037 1.20583 64.6037C1.60583 64.4037 2.00583 64.3037 2.20583 64.0037C2.30583 63.9037 2.50583 63.8037 2.70583 63.9037C2.80583 64.0037 2.90583 64.2037 2.80583 64.4037C2.40583 64.9037 1.90583 65.1037 1.50583 65.2037L1.30583 65.3037H1.10583Z" fill="black"/>
<path fill-rule="evenodd" clip-rule="evenodd" d="M9.30567 22.7039C-4.29433 18.9039 5.80567 1.60386 16.7057 8.70386L9.30567 22.7039Z" fill="#2E3FB8"/>
<path d="M9.50504 23.1041L9.20504 23.0041C2.20504 21.0041 2.30504 16.0041 2.50504 14.5041C3.00504 10.7041 6.60504 6.7041 11.405 6.7041C13.305 6.7041 15.105 7.3041 16.905 8.5041L17.205 8.7041L9.50504 23.1041ZM11.405 7.4041C6.90504 7.4041 3.60504 11.1041 3.10504 14.6041C2.60504 18.2041 4.80504 21.0041 9.10504 22.3041L16.205 8.8041C14.705 7.9041 13.105 7.4041 11.405 7.4041Z" fill="#2E3FB8"/>
<path fill-rule="evenodd" clip-rule="evenodd" d="M69.6055 7.40368C80.3055 -0.0963182 90.1055 16.9037 77.6055 21.2037L69.6055 7.40368Z" fill="#2E3FB8"/>
<path fill-rule="evenodd" clip-rule="evenodd" d="M72.0059 108.604C74.7059 110.304 79.7059 115.404 75.6059 117.904C71.7059 121.504 69.5059 113.904 66.0059 112.904C67.5059 110.904 69.4059 109.004 72.0059 108.604Z" fill="#F6D2A2"/>
<path d="M73.5053 119.204C71.9053 119.204 70.5053 117.604 69.3053 116.104C68.2053 114.904 67.1053 113.604 65.9053 113.204L65.4053 113.104L65.7053 112.704C66.9053 111.004 68.9053 108.804 71.9053 108.304H72.0053L72.1053 108.404C73.8053 109.504 77.5053 112.604 77.4053 115.504C77.4053 116.604 76.8053 117.504 75.7053 118.204C75.0053 118.904 74.3053 119.204 73.5053 119.204ZM66.5053 112.704C67.7053 113.204 68.7053 114.504 69.7053 115.604C70.9053 117.104 72.1053 118.404 73.4053 118.404C74.0053 118.404 74.6053 118.104 75.2053 117.504H75.3053C76.2053 116.904 76.7053 116.204 76.7053 115.304C76.7053 113.004 73.8053 110.104 71.8053 108.804C70.0053 109.304 68.2053 110.504 66.5053 112.704ZM75.6053 118.204C75.5053 118.204 75.4053 118.104 75.3053 118.004C75.1053 117.604 74.9053 117.104 74.8053 116.704C74.5053 115.904 74.2053 115.104 73.6053 114.504C73.5053 114.404 73.5053 114.204 73.6053 114.004C73.7053 113.904 73.9053 113.904 74.1053 114.004C74.8053 114.704 75.2053 115.604 75.5053 116.504L76.0053 117.704C76.1053 117.904 76.0053 118.104 75.9053 118.204H75.6053Z" fill="black"/>
<path fill-rule="evenodd" clip-rule="evenodd" d="M23.2056 114.404C20.0056 114.904 18.2056 117.804 15.5056 119.304C13.0056 120.804 12.0056 118.804 11.8056 118.404C11.4056 118.204 11.4056 118.604 10.8056 118.004C8.50557 114.304 13.2056 111.604 15.7056 109.804C19.2056 109.004 21.4056 112.004 23.2056 114.404Z" fill="#F6D2A2"/>
<path d="M13.8051 120.104C12.5051 120.104 11.8051 119.004 11.6051 118.604H11.5051C11.2051 118.604 11.0051 118.504 10.6051 118.104V118.004C8.40512 114.504 12.2051 111.804 14.7051 110.004L15.6051 109.404H15.8051C16.2051 109.304 16.5051 109.304 16.9051 109.304C19.9051 109.304 21.8051 111.904 23.4051 114.004L23.9051 114.704L23.3051 114.804C21.4051 115.104 20.0051 116.304 18.6051 117.504C17.7051 118.304 16.8051 119.004 15.8051 119.604C15.0051 119.904 14.4051 120.104 13.8051 120.104ZM11.6051 118.004C11.7051 118.004 11.8051 118.004 12.0051 118.104H12.1051L12.2051 118.204C12.4051 118.504 12.9051 119.404 13.9051 119.404C14.4051 119.404 14.9051 119.204 15.4051 118.904C16.4051 118.404 17.3051 117.604 18.1051 116.904C19.4051 115.804 20.8051 114.604 22.6051 114.104C21.1051 112.104 19.3051 109.904 16.8051 109.904C16.5051 109.904 16.2051 109.904 15.9051 110.004L15.1051 110.604C12.5051 112.404 9.30512 114.704 11.2051 117.704C11.3051 117.904 11.4051 118.004 11.6051 118.004ZM11.8051 118.704C11.6051 118.704 11.4051 118.504 11.5051 118.304C11.6051 117.304 12.1051 116.604 12.6051 115.804C12.9051 115.404 13.1051 115.004 13.3051 114.604C13.4051 114.404 13.6051 114.404 13.7051 114.404C13.9051 114.504 13.9051 114.704 13.9051 114.804C13.7051 115.304 13.4051 115.704 13.1051 116.104C12.6051 116.804 12.2051 117.404 12.1051 118.204C12.1051 118.604 12.0051 118.704 11.8051 118.704Z" fill="black"/>
<path fill-rule="evenodd" clip-rule="evenodd" d="M9.9058 18.0037C8.1058 17.1037 6.8058 15.8037 7.9058 13.7037C8.9058 11.8037 10.8058 12.0037 12.6058 12.9037L9.9058 18.0037ZM74.8058 16.2037C76.6058 15.3037 77.9058 14.0037 76.8058 11.9037C75.8058 10.0037 73.9058 10.2037 72.1058 11.1037L74.8058 16.2037Z" fill="white"/>
<path fill-rule="evenodd" clip-rule="evenodd" d="M87.1059 64.5036C86.9059 68.0036 83.4059 66.4036 81.8059 65.3036C80.3059 64.2036 79.8059 65.1036 79.7059 63.0036C79.6059 61.6036 79.5059 60.3036 79.5059 58.9036C81.8059 58.7036 84.3059 59.2036 86.2059 60.6036C87.2059 61.4036 89.0059 63.6036 87.1059 64.5036Z" fill="#F6D2A2"/>
<path d="M85.3055 67.0035C83.8055 67.0035 82.1055 65.9035 81.6055 65.6035C81.1055 65.3035 80.8055 65.1035 80.5055 65.0035C79.7055 64.7035 79.5055 64.5035 79.4055 63.0035C79.4055 62.7035 79.4055 62.4035 79.3055 62.1035C79.2055 61.1035 79.1055 60.0035 79.2055 58.9035V58.6035H80.5055C82.7055 58.6035 84.8055 59.2035 86.4055 60.4035C87.1055 60.9035 88.4055 62.3035 88.3055 63.5035C88.3055 63.9035 88.1055 64.4035 87.5055 64.7035C87.3055 66.7035 86.0055 67.0035 85.3055 67.0035ZM79.8055 59.3035C79.8055 60.2035 79.8055 61.2035 79.9055 62.1035C79.9055 62.4035 79.9055 62.7035 80.0055 63.0035C80.1055 64.2035 80.2055 64.2035 80.7055 64.4035C81.0055 64.5035 81.4055 64.7035 82.0055 65.0035C82.9055 65.6035 84.3055 66.3035 85.3055 66.3035C85.9055 66.3035 86.7055 66.1035 86.8055 64.5035V64.3035L87.0055 64.2035C87.4055 64.0035 87.6055 63.8035 87.6055 63.4035C87.7055 62.6035 86.7055 61.4035 86.0055 60.9035C84.5055 59.8035 82.5055 59.2035 80.5055 59.2035C80.3055 59.3035 80.1055 59.3035 79.8055 59.3035Z" fill="black"/>
<path fill-rule="evenodd" clip-rule="evenodd" d="M87.1051 64.5041C86.6051 64.3041 86.0051 64.2041 85.7051 63.7041L87.1051 64.5041Z" fill="#C6B198"/>
<path d="M87.1051 64.9032H87.0051L86.8051 64.8032C86.3051 64.6032 85.8051 64.5032 85.5051 64.0032C85.4051 63.9032 85.4051 63.6032 85.6051 63.5032C85.7051 63.4032 86.0051 63.4032 86.1051 63.6032C86.3051 63.9032 86.7051 64.0032 87.1051 64.2032C87.2051 64.2032 87.3051 64.3032 87.3051 64.3032C87.5051 64.4032 87.6051 64.6032 87.5051 64.7032C87.4051 64.8032 87.2051 64.9032 87.1051 64.9032Z" fill="black"/>
<path fill-rule="evenodd" clip-rule="evenodd" d="M42.8057 0.303711C56.4057 0.303711 69.1057 2.20371 75.8057 15.3037C81.8057 29.9037 79.6057 45.7037 80.6057 61.2037C81.4057 74.5037 83.1057 89.8037 77.0057 102.104C70.5057 115.004 54.3057 118.304 41.0057 117.804C30.5057 117.404 17.9057 114.004 11.9057 104.404C5.00575 93.2037 8.20575 76.5037 8.70575 64.0037C9.30575 49.2037 4.70575 34.3037 9.60575 19.9037C14.5057 4.80371 28.1057 1.40371 42.8057 0.303711Z" fill="#2E3FB8"/>
<path d="M43.3059 118.204H40.8059C36.7059 118.104 30.5059 117.404 24.4059 114.904C18.5059 112.504 14.2059 109.104 11.4059 104.604C5.80591 95.5036 6.80591 83.0036 7.70591 71.9036C7.90591 69.1036 8.10591 66.5036 8.20591 64.0036C8.40591 58.8036 8.00591 53.4036 7.50591 48.3036C6.70591 38.9036 5.90591 29.2036 9.00591 19.8036C11.4059 12.8036 15.7059 7.80361 22.2059 4.60361C27.3059 2.10361 33.6059 0.703615 42.6059 0.00361473C56.0059 -0.0963853 69.3059 1.80361 76.0059 15.1036C80.4059 25.8036 80.4059 37.3036 80.5059 48.4036C80.5059 52.6036 80.5059 56.9036 80.8059 61.1036C80.9059 62.4036 81.0059 63.7036 81.0059 65.0036C81.8059 77.2036 82.7059 91.0036 77.1059 102.204C74.3059 107.904 69.4059 112.104 62.7059 114.804C57.3059 117.004 50.5059 118.204 43.3059 118.204ZM42.8059 0.603615C28.7059 1.70361 14.9059 4.80362 9.80591 20.0036C6.70591 29.3036 7.50591 38.9036 8.30591 48.2036C8.70591 53.4036 9.20591 58.7036 9.00591 64.0036C8.90591 66.5036 8.70591 69.1036 8.50591 71.9036C7.60591 82.9036 6.60591 95.3036 12.1059 104.204C14.4059 107.904 21.8059 116.704 40.9059 117.404H43.4059C65.5059 117.404 73.7059 107.604 76.7059 101.804C82.2059 90.8036 81.3059 77.0036 80.6059 64.9036C80.5059 63.6036 80.4059 62.3036 80.4059 61.0036C80.2059 56.8036 80.1059 52.5036 80.1059 48.3036C80.0059 37.3036 80.0059 25.8036 75.7059 15.2036C72.7059 9.30361 68.2059 5.30361 62.0059 3.00361C55.6059 0.903615 48.4059 0.603615 42.8059 0.603615Z" fill="black"/>
<path fill-rule="evenodd" clip-rule="evenodd" d="M45.2059 18.5032C47.6059 32.7032 70.8059 28.9032 67.5059 14.6032C64.5059 1.80321 44.4059 5.40321 45.2059 18.5032Z" fill="white"/>
<path d="M56.2053 27.8033C51.7053 27.8033 46.0053 25.4033 44.8053 18.6033C44.6053 15.4033 45.6053 12.5033 47.7053 10.3033C50.0053 7.80332 53.5053 6.40332 57.1053 6.40332C61.3053 6.40332 66.3053 8.60332 67.7053 14.7033C68.5053 18.1033 67.9053 21.1033 66.0053 23.5033C63.9053 26.1033 60.2053 27.8033 56.2053 27.8033ZM45.5053 18.5033C46.0053 21.3033 47.3053 23.5033 49.4053 25.1033C51.2053 26.5033 53.7053 27.2033 56.2053 27.2033C59.9053 27.2033 63.5053 25.6033 65.5053 23.1033C67.3053 20.9033 67.8053 18.0033 67.1053 14.8033C65.8053 9.10332 61.1053 7.10332 57.1053 7.10332C53.7053 7.10332 50.4053 8.50332 48.2053 10.8033C46.3053 12.8033 45.3053 15.5033 45.5053 18.5033Z" fill="black"/>
<path fill-rule="evenodd" clip-rule="evenodd" d="M17.5054 20.8037C20.7054 33.1037 40.4054 30.0037 39.7054 17.6037C38.8054 2.80365 14.4054 5.60366 17.5054 20.8037Z" fill="white"/>
<path d="M28.0059 29.0039C23.7059 29.0039 18.7059 26.9039 17.1059 20.9039C16.4059 17.4039 17.1059 14.2039 19.1059 11.8039C21.3059 9.10391 24.9059 7.50391 28.8059 7.50391C34.0059 7.50391 39.5059 10.6039 39.9059 17.6039C40.1059 20.5039 39.2059 23.1039 37.2059 25.2039C35.1059 27.5039 31.6059 29.0039 28.0059 29.0039ZM28.8059 8.20391C25.1059 8.20391 21.7059 9.70391 19.6059 12.2039C17.7059 14.5039 17.1059 17.4039 17.8059 20.7039C19.2059 26.3039 24.0059 28.3039 28.0059 28.3039C31.4059 28.3039 34.7059 27.0039 36.8059 24.7039C38.6059 22.8039 39.5059 20.3039 39.3059 17.6039C39.1059 13.3039 36.2059 8.20391 28.8059 8.20391Z" fill="black"/>
<path fill-rule="evenodd" clip-rule="evenodd" d="M48.0055 35.5041C48.0055 37.3041 48.4055 39.4041 48.1055 41.4041C47.6055 42.3041 46.7055 42.4041 45.9055 42.7041C44.8055 42.5041 43.9055 41.8041 43.4055 40.8041C43.1055 38.6041 43.5055 36.4041 43.6055 34.2041L48.0055 35.5041Z" fill="white"/>
<path d="M45.9057 43.1033C44.6057 42.9033 43.6057 42.1033 43.1057 41.0033C42.9057 39.4033 43.0057 37.9033 43.1057 36.4033C43.2057 35.7033 43.2057 35.0033 43.2057 34.3033V33.9033L48.3057 35.5033V35.7033C48.3057 36.3033 48.4057 36.9033 48.4057 37.6033C48.5057 38.9033 48.6057 40.3033 48.4057 41.6033V41.7033C48.0057 42.5033 47.3057 42.7033 46.6057 43.0033C46.4057 42.9033 46.2057 43.0033 45.9057 43.1033ZM43.7057 40.7033C44.1057 41.6033 44.9057 42.2033 45.8057 42.4033C46.0057 42.3033 46.2057 42.3033 46.3057 42.2033C46.9057 42.0033 47.4057 41.8033 47.7057 41.3033C47.9057 40.1033 47.8057 38.8033 47.7057 37.5033C47.7057 36.9033 47.6057 36.3033 47.6057 35.8033L43.8057 34.6033C43.8057 35.2033 43.7057 35.8033 43.7057 36.3033C43.6057 37.9033 43.5057 39.3033 43.7057 40.7033Z" fill="black"/>
<path fill-rule="evenodd" clip-rule="evenodd" d="M26.3051 18.8041C26.3051 20.8041 24.8051 22.4041 23.0051 22.4041C21.2051 22.4041 19.7051 20.8041 19.7051 18.8041C19.7051 16.8041 21.2051 15.2041 23.0051 15.2041C24.8051 15.2041 26.3051 16.8041 26.3051 18.8041Z" fill="black"/>
<path fill-rule="evenodd" clip-rule="evenodd" d="M25.2055 19.6031C25.2055 20.1031 24.8055 20.5031 24.4055 20.5031C24.0055 20.5031 23.6055 20.1031 23.6055 19.6031C23.6055 19.1031 24.0055 18.7031 24.4055 18.7031C24.9055 18.7031 25.2055 19.1031 25.2055 19.6031Z" fill="white"/>
<path fill-rule="evenodd" clip-rule="evenodd" d="M54.2055 17.9037C54.2055 19.9037 52.7055 21.5037 50.9055 21.5037C49.1055 21.5037 47.6055 19.9037 47.6055 17.9037C47.6055 15.9037 49.1055 14.3037 50.9055 14.3037C52.7055 14.3037 54.2055 15.9037 54.2055 17.9037Z" fill="black"/>
<path fill-rule="evenodd" clip-rule="evenodd" d="M53.2055 18.7037C53.2055 19.2037 52.9055 19.6037 52.4055 19.6037C52.0055 19.6037 51.6055 19.2037 51.6055 18.7037C51.6055 18.2037 51.9055 17.8037 52.4055 17.8037C52.8055 17.8037 53.2055 18.2037 53.2055 18.7037Z" fill="white"/>
<path fill-rule="evenodd" clip-rule="evenodd" d="M38.4051 35.3035C36.9051 38.8035 39.2051 45.9035 43.2051 40.7035C42.9051 38.5035 43.3051 36.3035 43.4051 34.1035L38.4051 35.3035Z" fill="white"/>
<path d="M40.5057 42.9035C39.8057 42.9035 39.1057 42.5035 38.6057 41.7035C37.5057 40.1035 37.3057 37.1035 38.1057 35.2035L38.2057 35.0035L43.7057 33.6035V34.0035L43.6057 36.2035C43.5057 37.7035 43.4057 39.1035 43.6057 40.6035V40.7035L43.5057 40.8035C42.5057 42.2035 41.5057 42.9035 40.5057 42.9035ZM38.7057 35.6035C38.1057 37.3035 38.3057 40.0035 39.2057 41.3035C39.6057 41.9035 40.0057 42.2035 40.5057 42.2035C41.2057 42.2035 42.0057 41.6035 42.8057 40.6035C42.6057 39.1035 42.7057 37.6035 42.9057 36.2035L43.0057 34.5035L38.7057 35.6035Z" fill="black"/>
<path fill-rule="evenodd" clip-rule="evenodd" d="M38.9053 28.5035C36.2053 28.7035 34.0053 32.0035 35.4053 34.5035C37.3053 37.9035 41.4053 34.2035 44.0053 34.5035C47.0053 34.6035 49.4053 37.7035 51.8053 35.1035C54.5053 32.2035 50.6053 29.4035 47.7053 28.1035L38.9053 28.5035Z" fill="#F6D2A2"/>
<path d="M49.7056 36.5037C48.8056 36.5037 47.9056 36.1037 47.0056 35.7037C46.1056 35.3037 45.1056 34.9037 44.0056 34.9037H43.7056C42.9056 34.9037 42.0056 35.2037 41.0056 35.6037C39.9056 36.0037 38.8056 36.3037 37.8056 36.3037C36.6056 36.3037 35.7056 35.8037 35.1056 34.7037C34.4056 33.5037 34.5056 32.1037 35.2056 30.8037C36.0056 29.3037 37.4056 28.4037 38.9056 28.2037L47.8056 27.8037H47.9056C50.1056 28.7037 52.6056 30.4037 53.1056 32.4037C53.3056 33.4037 53.0056 34.4037 52.2056 35.3037C51.4056 36.2037 50.6056 36.5037 49.7056 36.5037ZM44.1056 34.3037C45.2056 34.3037 46.3056 34.8037 47.3056 35.2037C48.2056 35.6037 49.0056 35.9037 49.8056 35.9037C50.5056 35.9037 51.1056 35.6037 51.7056 35.0037C52.4056 34.3037 52.6056 33.5037 52.5056 32.7037C52.1056 31.0037 49.7056 29.4037 47.8056 28.6037L39.1056 29.0037C37.8056 29.1037 36.6056 30.0037 35.9056 31.2037C35.3056 32.3037 35.3056 33.5037 35.8056 34.5037C36.3056 35.4037 36.9056 35.8037 37.9056 35.8037C38.8056 35.8037 39.8056 35.4037 40.8056 35.1037C41.9056 34.7037 42.8056 34.4037 43.8056 34.4037C43.8056 34.2037 43.9056 34.2037 44.1056 34.3037Z" fill="#231F20"/>
<path fill-rule="evenodd" clip-rule="evenodd" d="M38.6058 28.4041C38.4058 23.7041 47.4058 23.1041 48.4058 27.0041C49.5058 31.0041 39.0058 31.9041 38.6058 28.4041Z" fill="black"/>
</svg>
