<svg width="118" height="105" viewBox="0 0 118 105" fill="none" xmlns="http://www.w3.org/2000/svg">
<path d="M76.6684 83.4337L64.6684 104.294H33.2417C31.8644 104.293 30.5115 103.93 29.3198 103.239C28.1282 102.548 27.1399 101.555 26.455 100.36L1.035 56.0404C0.356797 54.8561 0 53.5151 0 52.1504C0 50.7857 0.356797 49.4447 1.035 48.2604L10.7083 31.4004L22.6484 52.147L40.6484 83.4337H76.6684Z" fill="#2E3FB8"/>
<path d="M116.289 56.0394L90.8688 100.366C90.1845 101.562 89.1964 102.555 88.0046 103.246C86.8128 103.936 85.4596 104.3 84.0821 104.299H64.6621L76.6621 83.4394L94.6754 52.1461L76.6621 20.8594H100.569L116.282 48.2594C116.966 49.4415 117.327 50.7828 117.328 52.1485C117.329 53.5142 116.971 54.8561 116.289 56.0394Z" fill="#3445BA"/>
<path d="M100.576 20.86H40.649L22.649 52.1467L10.709 31.3934L26.4557 3.9334C27.14 2.73789 28.128 1.74446 29.3198 1.05372C30.5116 0.362979 31.8648 -0.000533027 33.2423 5.86638e-07H84.089C85.4661 0.00108105 86.8187 0.365262 88.0102 1.05582C89.2017 1.74638 90.1901 2.7389 90.8757 3.9333L100.576 20.86Z" fill="#3343BA"/>
<path d="M76.6684 20.8594L94.6684 52.1461L76.6617 83.4328H40.655L22.6484 52.1461L40.6484 20.8594H76.6684Z" fill="#E0E0E0"/>
<path d="M58.6623 67.7934C67.3038 67.7934 74.309 60.7881 74.309 52.1467C74.309 43.5053 67.3038 36.5 58.6623 36.5C50.0209 36.5 43.0156 43.5053 43.0156 52.1467C43.0156 60.7881 50.0209 67.7934 58.6623 67.7934Z" fill="white"/>
<path opacity="0.2" d="M26.4557 4.5799C27.14 3.3844 28.1281 2.39098 29.3199 1.70025C30.5117 1.00953 31.8649 0.646039 33.2424 0.6466H84.0891C85.4662 0.647681 86.8188 1.01186 88.0103 1.70242C89.2018 2.39298 90.1902 3.3855 90.8758 4.5799L100.209 20.8599H100.582L90.8757 3.9333C90.1914 2.7378 89.2033 1.74438 88.0115 1.05365C86.8197 0.362929 85.4665 -0.000560673 84.089 6.49134e-07H33.2424C31.8651 0.000256204 30.5122 0.364089 29.3205 1.05473C28.1289 1.74537 27.1406 2.73835 26.4557 3.9333L10.709 31.3933L10.8957 31.72L26.4557 4.5799Z" fill="#3748BB"/>
</svg>
