<svg width="110" height="125" viewBox="0 0 110 125" fill="none" xmlns="http://www.w3.org/2000/svg">
<path d="M10.005 112.215L0 0H109.936L99.92 112.198L54.901 124.678L10.005 112.215Z" fill="#2E3FB8"/>
<path d="M54.968 50.7935H36.756L35.498 36.6995H54.968V22.9375H20.457L20.787 26.6295L24.169 64.5565H54.968V50.7935ZM54.968 86.5365L54.907 86.5535L39.58 82.4135L38.601 71.4385H24.784L26.712 93.0475L54.905 100.874L54.968 100.856V86.5365Z" fill="white"/>
<path d="M54.9199 50.7935V64.5565H71.8669L70.2699 82.4055L54.9199 86.5485V100.868L83.1349 93.0475L83.3419 90.7225L86.5759 54.4895L86.9109 50.7935H83.2029H54.9199ZM54.9199 22.9375V36.6995H88.1639L88.4399 33.6075L89.0679 26.6295L89.3969 22.9375H54.9199Z" fill="white"/>
</svg>
