<svg width="128" height="128" viewBox="0 0 128 128" fill="none" xmlns="http://www.w3.org/2000/svg">
<path d="M47.6173 98.1201C47.6173 98.1201 42.8503 100.894 51.0143 101.83C60.9063 102.96 65.9613 102.798 76.8593 100.738C76.8593 100.738 79.7303 102.533 83.7323 104.089C59.2933 114.559 28.4243 103.482 47.6173 98.1201ZM44.6293 84.4551C44.6293 84.4551 39.2813 88.4141 47.4523 89.2601C58.0193 90.3511 66.3623 90.4401 80.8063 87.6601C80.8063 87.6601 82.7993 89.6851 85.9383 90.7911C56.3963 99.4311 23.4923 91.4711 44.6293 84.4551Z" fill="#2E3FB8"/>
<path d="M69.8016 61.271C75.8266 68.206 68.2215 74.441 68.2215 74.441C68.2215 74.441 83.5105 66.55 76.4905 56.664C69.9315 47.449 64.9035 42.872 92.1255 27.084C92.1255 27.085 49.3946 37.754 69.8016 61.271Z" fill="#2E3FB8"/>
<path d="M102.123 108.229C102.123 108.229 105.652 111.139 98.2354 113.388C84.1334 117.66 39.5294 118.948 27.1414 113.559C22.6904 111.621 31.0404 108.934 33.6674 108.367C36.4064 107.774 37.9704 107.882 37.9704 107.882C33.0174 104.395 5.95741 114.732 24.2274 117.697C74.0484 125.773 115.044 114.06 102.123 108.229ZM49.9124 70.294C49.9124 70.294 27.2264 75.683 41.8794 77.642C48.0674 78.47 60.3974 78.28 71.8904 77.316C81.2804 76.527 90.7034 74.842 90.7034 74.842C90.7034 74.842 87.3954 76.261 84.9994 77.895C61.9574 83.956 17.4554 81.133 30.2684 74.937C41.1004 69.698 49.9124 70.294 49.9124 70.294ZM90.6094 93.041C114.03 80.874 103.2 69.181 95.6414 70.756C93.7934 71.141 92.9644 71.476 92.9644 71.476C92.9644 71.476 93.6524 70.397 94.9644 69.933C109.917 64.678 121.415 85.436 90.1414 93.658C90.1414 93.656 90.5004 93.331 90.6094 93.041Z" fill="#2E3FB8"/>
<path d="M76.4912 1.58691C76.4912 1.58691 89.4592 14.5629 64.1882 34.5099C43.9222 50.5159 59.5672 59.6399 64.1812 70.0689C52.3502 59.3959 43.6722 49.9989 49.4932 41.2539C58.0412 28.4199 81.7222 22.1949 76.4912 1.58691Z" fill="#2E3FB8"/>
<path d="M52.2144 126.021C74.6904 127.458 109.214 125.221 110.031 114.585C110.031 114.585 108.46 118.617 91.4544 121.816C72.2684 125.428 48.6004 125.007 34.5674 122.69C34.5674 122.691 37.4424 125.071 52.2144 126.021Z" fill="#2E3FB8"/>
</svg>
