<svg width="126" height="126" viewBox="0 0 126 126" fill="none" xmlns="http://www.w3.org/2000/svg">
<path d="M0.0078125 0.381836H125.192V125.567H0.0078125V0.381836Z" fill="#2E3FB8"/>
<path d="M114.946 95.7095C114.029 89.9985 110.305 85.2015 99.2742 80.7285C95.4422 78.9675 91.1702 77.7065 89.8972 74.8025C89.4452 73.1125 89.3852 72.1605 89.6712 71.1375C90.4922 67.8175 94.4552 66.7825 97.5962 67.7345C99.6192 68.4125 101.534 69.9715 102.689 72.4585C108.091 68.9605 108.08 68.9835 111.852 66.5795C110.471 64.4385 109.734 63.4505 108.83 62.5345C105.581 58.9055 101.154 57.0365 94.0742 57.1795L90.3862 57.6565C86.8522 58.5495 83.4842 60.4045 81.5092 62.8915C75.5832 69.6155 77.2732 81.3835 84.4842 86.2265C91.5882 91.5585 102.024 92.7715 103.357 97.7575C104.654 103.862 98.8712 105.838 93.1232 105.136C88.8872 104.255 86.5312 102.102 83.9842 98.1865C79.2962 100.9 79.2962 100.9 74.4762 103.672C75.6192 106.171 76.8202 107.302 78.7362 109.467C87.8042 118.665 110.496 118.213 114.566 104.291C114.731 103.813 115.827 100.625 114.946 95.7095ZM68.0612 57.9165H56.3522L56.3042 88.1885C56.3042 94.6265 56.6372 100.529 55.5902 102.338C53.8772 105.896 49.4382 105.455 47.4152 104.765C45.3562 103.753 44.3092 102.314 43.0962 100.28C42.7632 99.6955 42.5132 99.2435 42.4292 99.2085L32.9092 105.039C34.4922 108.288 36.8242 111.108 39.8112 112.94C44.2732 115.618 50.2702 116.439 56.5422 114.999C60.6242 113.81 64.1462 111.347 65.9902 107.598C68.6562 102.683 68.0842 96.7335 68.0602 90.1535C68.1202 79.4185 68.0612 68.6855 68.0612 57.9165Z" fill="#FEFEFE"/>
</svg>
