<svg width="185" height="37" viewBox="0 0 185 37" fill="none" xmlns="http://www.w3.org/2000/svg">
<path d="M21.4503 1.46526L20.9546 2.25811L10.3556 19.1566C10.2858 19.2706 10.2017 19.3751 10.1052 19.4675C9.8123 19.7667 9.42585 19.9566 9.01008 20.0056C8.59431 20.0547 8.17429 19.9599 7.81989 19.737L6.07701 18.6557L2.34596 16.3083C1.62829 15.8584 1.03668 15.2336 0.626677 14.4924C0.216671 13.7513 0.00170839 12.9181 0.00196745 12.0711C-0.000432349 10.9974 0.298824 9.94462 0.865635 9.03272L5.70218 1.32535C5.93431 0.955358 6.25655 0.65034 6.63872 0.438863C7.02088 0.227386 7.45048 0.11637 7.88726 0.116211H21.9426C22.048 0.561863 21.7146 1.04552 21.4503 1.46526Z" fill="#F2BC22"/>
<path d="M35.7676 1.98789L33.9089 15.7185C33.8458 16.1751 33.6046 16.5882 33.2379 16.8675C32.8712 17.1468 32.4088 17.2697 31.9519 17.2092L30.9155 17.071L27.447 16.6012L21.8988 15.8498C21.4318 15.7867 21.009 15.5407 20.7233 15.1659C20.4376 14.7911 20.3124 14.3183 20.3753 13.8512L21.9454 2.25908L22.2339 0.117188H34.1352C34.3702 0.117809 34.6024 0.168587 34.8162 0.26613C35.0301 0.363673 35.2206 0.505733 35.3751 0.682814C35.5296 0.859895 35.6446 1.06792 35.7122 1.29298C35.7799 1.51804 35.7988 1.75496 35.7676 1.98789V1.98789Z" fill="#0015AD"/>
<path d="M35.7877 24.7173C35.7878 25.7922 35.4848 26.8452 34.9137 27.7557L30.0875 35.4631C29.8547 35.8324 29.5323 36.1369 29.1503 36.3483C28.7683 36.5597 28.339 36.6711 27.9024 36.6722H13.8385C13.7383 36.2283 14.0734 35.7447 14.3359 35.3249L14.8317 34.5303L25.4341 17.6197C25.5033 17.5054 25.5876 17.4008 25.6845 17.3088C25.9769 17.0095 26.3631 16.8195 26.7787 16.7704C27.1942 16.7214 27.614 16.8163 27.9681 17.0393L29.7058 18.1379L33.4385 20.4785C34.1575 20.9277 34.7504 21.5525 35.1614 22.2941C35.5724 23.0356 35.7879 23.8695 35.7877 24.7173Z" fill="#F2BC22"/>
<path d="M15.4035 22.9314L13.8333 34.5236L13.5449 36.6655H1.64697C1.41195 36.6648 1.17977 36.6141 0.965955 36.5165C0.752136 36.419 0.561601 36.2769 0.407084 36.0998C0.252567 35.9228 0.137629 35.7147 0.0699513 35.4897C0.00227329 35.2646 -0.0165847 35.0277 0.0146371 34.7948L1.87498 21.0573C1.93806 20.6012 2.1792 20.1887 2.54564 19.91C2.91208 19.6313 3.37399 19.5091 3.83032 19.57L4.86672 19.7065L8.33521 20.1763L13.8834 20.9277C14.1148 20.9594 14.3378 21.0363 14.5394 21.1541C14.7411 21.272 14.9176 21.4284 15.0587 21.6145C15.1999 21.8006 15.303 22.0127 15.3622 22.2387C15.4213 22.4646 15.4354 22.7 15.4035 22.9314V22.9314Z" fill="#0015AD"/>
<g opacity="0.5">
<path opacity="0.5" d="M124.818 29.6104H126.718L128.584 34.5091L130.47 29.6104H132.343V36.6009H131.158V30.7953H131.133L129.011 36.6009H128.147L126.024 30.7953H126.003V36.6009H124.818V29.6104Z" fill="black"/>
<path opacity="0.5" d="M138.295 33.1361C138.288 32.6146 138.382 32.0967 138.572 31.6109C138.744 31.1724 139.005 30.7738 139.337 30.4397C139.67 30.1139 140.067 29.8604 140.503 29.6953C140.977 29.5163 141.481 29.4272 141.988 29.4327C142.499 29.4212 143.008 29.5031 143.489 29.6745C143.929 29.8341 144.329 30.0849 144.664 30.4104C144.999 30.7415 145.261 31.1385 145.434 31.5763C145.624 32.0602 145.718 32.5765 145.711 33.0964C145.718 33.6067 145.624 34.1133 145.434 34.5871C145.259 35.0209 144.997 35.4141 144.664 35.7427C144.328 36.0711 143.928 36.3279 143.489 36.4975C142.529 36.8657 141.468 36.8731 140.503 36.5182C140.066 36.3544 139.668 36.1006 139.335 35.7733C139.003 35.446 138.743 35.0525 138.572 34.6182C138.383 34.147 138.289 33.6435 138.295 33.1361ZM139.599 33.0567C139.596 33.4096 139.654 33.7605 139.772 34.0931C139.879 34.3957 140.045 34.674 140.261 34.9118C140.472 35.1428 140.73 35.3275 141.016 35.4542C141.325 35.5903 141.661 35.6581 141.999 35.6528C142.338 35.6575 142.675 35.5898 142.987 35.4542C143.275 35.328 143.534 35.1433 143.747 34.9118C143.962 34.6736 144.128 34.3954 144.236 34.0931C144.353 33.7603 144.411 33.4095 144.408 33.0567C144.41 32.723 144.352 32.3918 144.236 32.079C144.125 31.7852 143.959 31.5154 143.747 31.2844C143.533 31.0561 143.274 30.8744 142.987 30.7507C142.674 30.6198 142.338 30.5546 141.999 30.5589C141.661 30.554 141.327 30.6193 141.016 30.7507C140.73 30.8749 140.473 31.0566 140.261 31.2844C140.048 31.515 139.882 31.7849 139.772 32.079C139.654 32.3913 139.594 32.7227 139.596 33.0567H139.599Z" fill="black"/>
<path opacity="0.5" d="M151.637 29.6104H154.362C154.626 29.6115 154.888 29.6452 155.143 29.7105C155.391 29.7677 155.625 29.8714 155.834 30.0163C156.051 30.1682 156.227 30.372 156.345 30.6092C156.463 30.8463 156.519 31.1093 156.51 31.374C156.522 31.7301 156.403 32.0783 156.174 32.3516C155.939 32.6145 155.634 32.8059 155.295 32.9044V32.9234C155.507 32.949 155.713 33.011 155.903 33.1065C156.084 33.1976 156.246 33.3212 156.382 33.4709C156.658 33.7866 156.81 34.1929 156.807 34.6127C156.823 34.9238 156.755 35.2334 156.609 35.5089C156.464 35.7844 156.247 36.0155 155.981 36.1777C155.72 36.3371 155.433 36.4488 155.133 36.5076C154.813 36.5733 154.487 36.6063 154.16 36.6061H151.637V29.6104ZM152.88 32.4553H154.017C154.346 32.4788 154.674 32.3939 154.95 32.2134C155.048 32.1339 155.127 32.0332 155.18 31.919C155.234 31.8048 155.262 31.68 155.261 31.5537C155.26 31.4274 155.23 31.303 155.175 31.1897C155.119 31.0763 155.039 30.977 154.939 30.8989C154.725 30.7504 154.381 30.6778 153.903 30.6778H152.867L152.88 32.4553ZM152.88 35.5351H154.026C154.199 35.5345 154.372 35.5247 154.544 35.5057C154.716 35.4887 154.885 35.4419 155.041 35.3676C155.19 35.2971 155.319 35.1902 155.416 35.0566C155.523 34.8949 155.575 34.7028 155.565 34.5091C155.565 34.1394 155.445 33.8838 155.205 33.7387C154.965 33.5936 154.59 33.521 154.084 33.521H152.88V35.5351Z" fill="black"/>
<path opacity="0.5" d="M162.746 29.6104H163.99V36.6009H162.746V29.6104Z" fill="black"/>
<path opacity="0.5" d="M170.26 29.6104H171.503V35.4833H174.476V36.6078H170.26V29.6104Z" fill="black"/>
<path opacity="0.5" d="M180.125 29.6104H184.756V30.7366H181.369V32.4553H184.578V33.5798H181.369V35.4798H184.932V36.6043H180.125V29.6104Z" fill="black"/>
</g>
<path d="M52.9099 12.6754C52.5433 12.2038 52.0708 11.8252 51.5306 11.5704C50.9904 11.3156 50.3977 11.1918 49.8007 11.2089C49.3408 11.2103 48.8879 11.321 48.4792 11.5319C48.2731 11.6305 48.1015 11.7888 47.9866 11.9863C47.8717 12.1837 47.8188 12.4112 47.835 12.6391C47.835 13.0675 48.0555 13.383 48.4965 13.5857C49.0374 13.8205 49.6004 14.0005 50.1772 14.1229L52.3571 14.6221C53.1198 14.7973 53.8538 15.08 54.537 15.4616C55.2121 15.8392 55.7876 16.3721 56.216 17.0162C56.657 17.6703 56.8776 18.5454 56.8776 19.6417C56.8776 20.7633 56.6334 21.6846 56.1452 22.4055C55.6634 23.1291 55.0208 23.7315 54.2675 24.1656C53.4687 24.6191 52.5983 24.9328 51.6938 25.0932C50.7628 25.2701 49.8173 25.3598 48.8696 25.3609C47.6248 25.3568 46.3863 25.1824 45.1887 24.8427C43.9943 24.5228 42.9082 23.8867 42.0449 23.0014L45.2958 19.3913C45.7484 19.9698 46.3137 20.4505 46.9575 20.8042C47.6163 21.138 48.3472 21.3041 49.0855 21.2879C49.657 21.2955 50.2255 21.2049 50.7662 21.0201C51.2672 20.8474 51.5176 20.514 51.5176 20.0373C51.521 19.8209 51.4598 19.6085 51.342 19.427C51.2242 19.2455 51.055 19.1032 50.8561 19.0182C50.3212 18.76 49.7568 18.568 49.1754 18.4464C48.4971 18.2909 47.7705 18.124 46.9955 17.9455C46.2371 17.7734 45.5043 17.5034 44.8156 17.1423C44.1373 16.7852 43.5599 16.263 43.1366 15.6239C42.6944 14.9676 42.4739 14.0918 42.475 12.9967C42.4501 12.0758 42.6657 11.1643 43.1003 10.3521C43.5038 9.62826 44.066 9.00523 44.7447 8.52978C45.4546 8.03926 46.2477 7.68166 47.0853 7.47437C47.9608 7.24666 48.8615 7.13058 49.7661 7.12891C50.9391 7.13527 52.1054 7.30562 53.2311 7.63502C54.3644 7.94912 55.3901 8.56738 56.197 9.42281L52.9099 12.6754Z" fill="#F2BC22"/>
<path d="M59.2305 8.90979H63.782V11.0189H63.8476C64.0739 10.7009 64.3333 10.4079 64.6215 10.1448C64.9621 9.83279 65.3384 9.56203 65.7425 9.33817C66.1871 9.08968 66.6574 8.89043 67.1451 8.74396C67.669 8.58714 68.2133 8.50914 68.7602 8.5125C69.8676 8.49723 70.9667 8.7052 71.992 9.12398C72.933 9.51285 73.7808 10.0969 74.4794 10.8375C75.184 11.5946 75.7281 12.4866 76.0789 13.4596C76.4618 14.5276 76.6513 15.6554 76.6386 16.7899C76.6406 17.8824 76.4656 18.968 76.1204 20.0045C75.8002 20.989 75.309 21.9093 74.6694 22.7233C74.0488 23.5114 73.2681 24.159 72.3789 24.6234C71.4304 25.1071 70.3775 25.3503 69.3129 25.3316C68.3303 25.3405 67.3537 25.1786 66.4265 24.8531C65.5481 24.5432 64.7839 23.9748 64.2346 23.2225H64.1689V32.4534H59.2305V8.90979ZM63.782 16.9281C63.782 18.1372 64.1275 19.116 64.8184 19.8646C65.5093 20.6131 66.4841 20.9839 67.7428 20.977C68.9968 20.977 69.9699 20.6033 70.662 19.8559C71.3541 19.1086 71.6995 18.1297 71.6984 16.9194C71.6984 15.7103 71.3529 14.7315 70.662 13.983C69.971 13.2345 68.998 12.8619 67.7428 12.8654C66.491 12.8654 65.5185 13.2391 64.8253 13.9864C64.1321 14.7338 63.7843 15.7143 63.782 16.9281Z" fill="#F2BC22"/>
<path d="M78.8828 8.90998H83.8282V11.4803H83.8938C84.4224 10.4922 85.0488 9.75062 85.7732 9.25545C86.4975 8.76028 87.4101 8.5127 88.511 8.5127C88.796 8.5127 89.081 8.52479 89.3746 8.54724C89.642 8.56554 89.9069 8.6095 90.1658 8.67852V13.1955C89.8266 13.0885 89.4803 13.006 89.1294 12.9485C88.7746 12.8922 88.4159 12.8644 88.0567 12.8656C87.1124 12.8656 86.3639 12.9974 85.8112 13.2611C85.2907 13.4996 84.8504 13.8835 84.5433 14.3666C84.2301 14.8842 84.0326 15.4635 83.9646 16.0646C83.873 16.7858 83.8292 17.5123 83.8334 18.2393V24.9327H78.8828V8.90998Z" fill="#F2BC22"/>
<path d="M91.3109 3.86402C91.3101 3.19929 91.54 2.55489 91.9612 2.04064C92.3824 1.5264 92.9689 1.17415 93.6207 1.04394C94.2726 0.913726 94.9494 1.01361 95.5358 1.32657C96.1223 1.63953 96.5821 2.14619 96.8367 2.76019C97.0914 3.37418 97.1253 4.05751 96.9326 4.69368C96.7399 5.32986 96.3325 5.8795 95.7799 6.24893C95.2272 6.61836 94.5636 6.7847 93.9021 6.71959C93.2406 6.65449 92.6221 6.36198 92.1521 5.89191C91.8808 5.62929 91.6662 5.31386 91.5215 4.96508C91.3768 4.6163 91.3051 4.24157 91.3109 3.86402V3.86402ZM91.7064 8.90957H96.6518V24.9323H91.7064V8.90957Z" fill="#F2BC22"/>
<path d="M99.5547 8.91019H104.301V11.0849H104.362C104.537 10.7475 104.759 10.4368 105.022 10.1625C105.323 9.84224 105.666 9.56499 106.043 9.33857C106.466 9.08397 106.921 8.8843 107.395 8.74436C107.93 8.58613 108.485 8.50812 109.043 8.5129C110.297 8.5129 111.308 8.70521 112.076 9.08983C112.813 9.44521 113.436 9.99917 113.874 10.6893C114.322 11.4261 114.619 12.2446 114.748 13.0973C114.906 14.0895 114.983 15.0929 114.978 16.0976V24.933H110.04V17.0857C110.04 16.625 110.023 16.1471 109.99 15.652C109.963 15.1832 109.862 14.7216 109.692 14.2839C109.538 13.8801 109.276 13.5264 108.934 13.2613C108.589 12.9988 108.105 12.8658 107.468 12.8658C106.928 12.8418 106.392 12.961 105.913 13.2113C105.531 13.4294 105.217 13.7494 105.006 14.1354C104.79 14.5407 104.65 14.9821 104.593 15.4378C104.526 15.9405 104.494 16.4472 104.495 16.9544V24.933H99.5547V8.91019Z" fill="#F2BC22"/>
<path d="M128.732 12.8652H124.381V18.2078C124.378 18.6118 124.4 19.0156 124.447 19.417C124.48 19.7473 124.581 20.0671 124.744 20.3566C124.909 20.6301 125.157 20.8437 125.452 20.9664C125.856 21.1247 126.288 21.1976 126.722 21.1806C127.068 21.1749 127.415 21.1478 127.758 21.0994C128.113 21.0738 128.452 20.9413 128.731 20.7194V24.8408C128.177 25.04 127.602 25.1728 127.017 25.2364C126.437 25.3012 125.853 25.3341 125.269 25.3348C124.492 25.3412 123.717 25.2531 122.961 25.0723C122.297 24.911 121.671 24.623 121.116 24.2241C120.585 23.8348 120.16 23.3188 119.88 22.7231C119.565 22.0174 119.413 21.2499 119.436 20.4775V12.8652H116.27V8.90958H119.436V4.16113H124.381V8.90958H128.732V12.8652Z" fill="#F2BC22"/>
<path d="M135.525 0V11.0774H135.591C135.719 10.7383 135.909 10.4257 136.151 10.155C136.428 9.8356 136.75 9.55807 137.107 9.33107C137.517 9.07265 137.961 8.87265 138.425 8.73686C138.961 8.57861 139.517 8.5006 140.075 8.5054C141.328 8.5054 142.339 8.69771 143.108 9.08233C143.844 9.4382 144.466 9.99209 144.905 10.6818C145.353 11.4183 145.651 12.2369 145.779 13.0897C145.938 14.0818 146.016 15.0853 146.01 16.0901V24.9255H141.063V17.0851C141.063 16.6245 141.047 16.1466 141.015 15.6514C140.988 15.1826 140.888 14.721 140.718 14.2833C140.563 13.8795 140.301 13.5258 139.959 13.2608C139.614 12.9982 139.13 12.8652 138.493 12.8652C137.953 12.8411 137.417 12.9603 136.938 13.2107C136.556 13.4288 136.242 13.7488 136.031 14.1348C135.815 14.5401 135.676 14.9815 135.618 15.4372C135.552 15.9399 135.519 16.4466 135.52 16.9538V24.9324H130.578V0H135.525Z" fill="#0015AD"/>
<path d="M164.276 24.9319H159.529V22.7572H159.463C159.271 23.0874 159.044 23.3965 158.788 23.6796C158.495 24.0021 158.156 24.2797 157.783 24.5036C157.359 24.7582 156.904 24.9578 156.43 25.0978C155.895 25.2555 155.34 25.333 154.782 25.3275C153.53 25.3275 152.514 25.1358 151.732 24.7523C150.989 24.3997 150.36 23.8447 149.918 23.1511C149.468 22.4167 149.174 21.5977 149.054 20.7449C148.906 19.7517 148.835 18.7486 148.84 17.7445V8.90918H153.786V16.7547C153.786 17.2154 153.802 17.6938 153.836 18.1902C153.863 18.6589 153.963 19.1205 154.133 19.5582C154.286 19.9624 154.549 20.3163 154.891 20.5808C155.236 20.8433 155.72 20.9763 156.358 20.9763C156.897 21.0011 157.434 20.8819 157.912 20.6309C158.295 20.4143 158.609 20.0948 158.819 19.7085C159.035 19.3031 159.175 18.8617 159.232 18.4061C159.299 17.9033 159.332 17.3966 159.33 16.8895V8.90918H164.276V24.9319Z" fill="#0015AD"/>
<path d="M167.582 0H172.527V10.6231H172.593C173.143 9.87037 173.908 9.3014 174.787 8.99078C175.713 8.66603 176.689 8.50415 177.671 8.51231C178.736 8.49416 179.789 8.73795 180.737 9.22224C181.627 9.68623 182.408 10.3339 183.028 11.1223C183.667 11.9372 184.158 12.858 184.479 13.8429C184.825 14.8792 185 15.9649 184.997 17.0574C185.01 18.192 184.82 19.3197 184.437 20.3877C184.087 21.3606 183.543 22.2521 182.838 23.0081C182.139 23.75 181.291 24.3347 180.349 24.7234C179.323 25.1407 178.224 25.3481 177.117 25.3331C176.57 25.337 176.026 25.2596 175.502 25.1034C175.015 24.9572 174.545 24.758 174.101 24.5092C173.697 24.2855 173.32 24.0147 172.98 23.7025C172.691 23.4394 172.431 23.1464 172.204 22.8285H172.139V24.9375H167.582V0ZM172.123 16.9279C172.123 18.137 172.469 19.1158 173.16 19.8644C173.851 20.6129 174.824 20.9866 176.079 20.9854C177.332 20.9854 178.304 20.6117 178.996 19.8644C179.688 19.117 180.034 18.1382 180.033 16.9279C180.033 15.7188 179.687 14.7399 178.996 13.9914C178.305 13.2429 177.333 12.8692 176.079 12.8704C174.825 12.8704 173.852 13.2441 173.16 13.9914C172.468 14.7388 172.122 15.7176 172.123 16.9279Z" fill="#0015AD"/>
</svg>
