<svg width="55" height="123" viewBox="0 0 55 123" fill="none" xmlns="http://www.w3.org/2000/svg">
<path fill-rule="evenodd" clip-rule="evenodd" d="M51.4464 40.5234C53.0514 45.1664 54.2074 49.9064 54.5874 54.8194C55.0594 60.9144 54.8434 66.9664 53.5584 72.9614C53.5234 73.1264 53.4494 73.2814 53.3944 73.4414C52.9914 73.4424 52.5804 73.3924 52.1864 73.4534C48.8574 73.9764 45.5314 74.5184 42.2054 75.0574C38.7674 75.6144 35.3244 76.1494 31.8924 76.7444C30.6764 76.9544 29.1714 76.7034 28.6804 78.3854C28.6664 78.4314 28.5264 78.4394 28.4454 78.4654L28.6114 68.4144C28.5544 60.3304 28.4984 52.2464 28.4424 44.1624L30.0444 43.8874C32.6644 43.4584 35.2844 43.0234 37.9064 42.6064C41.0354 42.1094 44.1674 41.6264 47.2984 41.1414C48.6794 40.9264 50.0624 40.7294 51.4464 40.5234Z" fill="#2E3FB8"/>
<path fill-rule="evenodd" clip-rule="evenodd" d="M25.137 107.766C23.447 106.313 21.698 104.924 20.078 103.396C11.361 95.1743 4.98497 85.4973 1.84497 73.8303C0.979974 70.6193 0.402975 67.3563 0.217975 64.0383C0.0879755 61.7163 -0.100028 59.3733 0.0639723 57.0633C0.500972 50.9193 1.38897 44.8343 3.19097 38.9163L3.28997 38.7783C3.46497 39.0113 3.71697 39.2173 3.80597 39.4803C5.56497 44.6603 7.31097 49.8443 9.04797 55.0313C14.506 71.3313 19.957 87.6353 25.424 103.931C25.531 104.249 25.808 104.51 26.007 104.797L25.137 107.766Z" fill="#2E3FB8"/>
<path fill-rule="evenodd" clip-rule="evenodd" d="M51.4462 40.5243C50.0622 40.7303 48.6782 40.9272 47.2972 41.1403C44.1662 41.6253 41.0342 42.1082 37.9052 42.6053C35.2832 43.0223 32.6632 43.4572 30.0432 43.8862L28.4412 44.1613L28.4292 43.1162C28.3762 42.2572 28.2852 41.3993 28.2752 40.5402C28.2062 35.0622 28.1632 29.5842 28.0952 24.1062C28.0532 20.6772 27.9902 17.2492 27.9202 13.8212C27.8772 11.6912 27.8312 9.56025 27.7352 7.43325C27.6832 6.29025 27.4992 5.15325 27.4242 4.01025C27.3822 3.35325 27.4402 2.69125 27.4532 2.03125C28.2702 3.61425 29.0692 5.20925 29.9092 6.78025C31.2362 9.26425 33.3502 11.0942 35.2532 13.0912C42.7762 20.9832 48.1172 30.1593 51.4462 40.5243Z" fill="#2E3FB8"/>
<path fill-rule="evenodd" clip-rule="evenodd" d="M28.4446 78.4647C28.5256 78.4387 28.6666 78.4307 28.6796 78.3847C29.1706 76.7027 30.6756 76.9537 31.8916 76.7437C35.3236 76.1497 38.7666 75.6137 42.2046 75.0567C45.5306 74.5177 48.8566 73.9757 52.1856 73.4527C52.5796 73.3907 52.9906 73.4417 53.3936 73.4407C52.7716 75.6607 52.2816 77.9287 51.4926 80.0877C50.5966 82.5367 49.5126 84.9267 48.3616 87.2697C46.6416 90.7727 44.4986 94.0397 42.0086 97.0327C40.0896 99.3407 37.9506 101.474 35.8066 103.581C34.6216 104.746 33.2246 105.695 31.9246 106.742L31.5876 106.512L30.3736 105.474L29.1176 102.721C28.2526 99.4977 27.7986 96.2167 27.7236 92.8827L27.7466 92.3217L27.9176 89.8957C27.9746 89.0677 28.0506 88.2407 28.0856 87.4107C28.2146 84.4287 28.3266 81.4467 28.4446 78.4647Z" fill="#2E3FB8"/>
<path fill-rule="evenodd" clip-rule="evenodd" d="M28.4445 78.4645C28.3265 81.4465 28.2145 84.4285 28.0875 87.4115C28.0525 88.2415 27.9765 89.0685 27.9195 89.8965L27.1545 90.1855C25.4555 85.1835 23.7555 80.2345 22.0925 75.2725C19.3425 67.0635 16.6255 58.8415 13.8795 50.6305C11.6625 44.0025 9.4275 37.3815 7.1795 30.7635C7.0745 30.4535 6.7725 30.2115 6.5625 29.9375L11.4585 20.9355C11.6265 21.2275 11.8485 21.5005 11.9545 21.8145C14.2195 28.5175 16.4805 35.2215 18.7225 41.9325C21.6385 50.6625 24.5365 59.3995 27.4505 68.1305C27.5665 68.4795 27.7585 68.8016 27.9415 69.1926L28.6115 68.4125C28.5555 71.7635 28.4995 75.1135 28.4445 78.4645Z" fill="#2E3FB8"/>
<path fill-rule="evenodd" clip-rule="evenodd" d="M6.56301 29.9385C6.77302 30.2125 7.07402 30.4545 7.18002 30.7645C9.42802 37.3825 11.663 44.0035 13.88 50.6315C16.626 58.8425 19.343 67.0645 22.093 75.2735C23.755 80.2345 25.455 85.1845 27.155 90.1865L27.92 89.8975L27.749 92.3235L27.594 92.8825C27.328 95.5385 27.104 98.2005 26.78 100.85C26.617 102.178 26.271 103.482 26.008 104.797C25.81 104.51 25.532 104.249 25.425 103.931C19.958 87.6345 14.507 71.3315 9.04902 55.0315C7.31202 49.8445 5.56601 44.6605 3.80701 39.4805C3.71801 39.2175 3.46702 39.0115 3.29102 38.7785C4.38102 35.8315 5.47201 32.8845 6.56301 29.9385Z" fill="#2E3FB8"/>
<path fill-rule="evenodd" clip-rule="evenodd" d="M28.61 68.4137L27.94 69.1937C27.757 68.8027 27.565 68.4797 27.449 68.1317C24.536 59.4007 21.637 50.6637 18.721 41.9337C16.479 35.2227 14.218 28.5187 11.953 21.8157C11.848 21.5017 11.626 21.2277 11.457 20.9367L17.512 12.9717C17.703 13.2267 17.975 13.4537 18.074 13.7407C19.755 18.6617 21.421 23.5887 23.077 28.5187C24.624 33.1227 26.148 37.7337 27.713 42.3317C27.818 42.6397 28.183 42.8577 28.427 43.1177L28.439 44.1627C28.497 52.2447 28.554 60.3297 28.61 68.4137Z" fill="#2E3FB8"/>
<path fill-rule="evenodd" clip-rule="evenodd" d="M28.4297 43.1156C28.1857 42.8556 27.8206 42.6376 27.7156 42.3296C26.1506 37.7316 24.6267 33.1206 23.0797 28.5166C21.4237 23.5866 19.7576 18.6606 18.0766 13.7386C17.9776 13.4516 17.7056 13.2246 17.5146 12.9696C19.4836 11.0416 21.3916 9.04463 23.4396 7.20563C25.2606 5.57163 26.7246 3.81963 26.7916 1.23763C26.7946 1.13063 26.8506 1.02363 26.9366 0.723633L27.4556 2.02963C27.4426 2.69063 27.3836 3.35163 27.4266 4.00863C27.5016 5.15163 27.6857 6.28863 27.7377 7.43163C27.8337 9.55863 27.8796 11.6896 27.9226 13.8196C27.9916 17.2476 28.0547 20.6756 28.0977 24.1046C28.1647 29.5826 28.2087 35.0606 28.2777 40.5386C28.2857 41.3996 28.3757 42.2566 28.4297 43.1156Z" fill="#2E3FB8"/>
<path fill-rule="evenodd" clip-rule="evenodd" d="M26.0057 104.797C26.2687 103.482 26.6147 102.177 26.7777 100.85C27.1027 98.2011 27.3257 95.5381 27.5917 92.8821L27.6577 92.8721L27.7237 92.8831C27.7987 96.2171 28.2527 99.4981 29.1177 102.721C28.9417 102.953 28.6927 103.16 28.5997 103.422C27.8727 105.472 27.1877 107.538 26.4567 109.588C26.3567 109.868 26.0787 110.086 25.8827 110.332L25.1357 107.766L26.0057 104.797Z" fill="#A9AA88"/>
<path fill-rule="evenodd" clip-rule="evenodd" d="M25.8838 110.333C26.0798 110.087 26.3588 109.869 26.4578 109.589C27.1888 107.539 27.8748 105.474 28.6008 103.423C28.6938 103.161 28.9418 102.954 29.1188 102.722L30.3738 105.476C30.1258 105.828 29.7838 106.145 29.6458 106.537L27.2418 113.596C27.1428 113.879 26.8048 114.079 26.5788 114.318L25.8838 110.333Z" fill="#B6B598"/>
<path fill-rule="evenodd" clip-rule="evenodd" d="M26.5791 114.317C26.8061 114.079 27.1431 113.878 27.2421 113.595L29.6461 106.536C29.7831 106.145 30.1261 105.827 30.3741 105.475L31.5891 106.512C31.0021 107.092 30.6761 107.762 30.8721 108.609L30.5031 109.817C30.3351 110.024 30.0921 110.204 30.0091 110.441C29.1701 112.844 28.3691 115.26 27.5241 117.663C27.4171 117.968 27.1201 118.207 26.9101 118.475C26.8011 117.088 26.6901 115.704 26.5791 114.317Z" fill="#C2C1A7"/>
<path fill-rule="evenodd" clip-rule="evenodd" d="M26.911 118.475C27.12 118.206 27.417 117.967 27.525 117.663C28.37 115.261 29.171 112.845 30.01 110.441C30.093 110.205 30.335 110.024 30.504 109.817L29.995 115.362C29.859 115.519 29.662 115.656 29.597 115.839C29.022 117.453 28.48 119.079 27.903 120.693C27.784 121.026 27.556 121.32 27.378 121.631C27.22 121.424 26.937 121.224 26.924 121.008C26.873 120.167 26.908 119.32 26.911 118.475Z" fill="#CECDB7"/>
<path fill-rule="evenodd" clip-rule="evenodd" d="M27.377 121.631C27.555 121.319 27.783 121.025 27.902 120.693C28.48 119.08 29.021 117.454 29.596 115.839C29.661 115.656 29.8589 115.52 29.9939 115.362L30.006 119.002L28.7879 122.126L27.377 121.631Z" fill="#DBDAC7"/>
</svg>
