<svg width="126" height="112" viewBox="0 0 126 112" fill="none" xmlns="http://www.w3.org/2000/svg">
<path d="M62.6002 67.3732C68.8962 67.3732 74.0002 62.2693 74.0002 55.9732C74.0002 49.6772 68.8962 44.5732 62.6002 44.5732C56.3042 44.5732 51.2002 49.6772 51.2002 55.9732C51.2002 62.2693 56.3042 67.3732 62.6002 67.3732Z" fill="#2E3FB8"/>
<path d="M105.9 37.1732C103.7 36.3732 101.4 35.5732 99 34.8732C99.6 32.4732 100.1 30.0732 100.5 27.7732C102.6 14.5732 100.3 5.27324 93.9 1.67324C92 0.573242 89.9 0.0732422 87.5 0.0732422C80.5 0.0732422 71.6 5.27324 62.6 13.9732C53.6 5.27324 44.7 0.0732422 37.7 0.0732422C35.3 0.0732422 33.2 0.573242 31.3 1.67324C24.9 5.37324 22.6 14.6732 24.7 27.7732C25.1 30.0732 25.6 32.4732 26.2 34.8732C23.8 35.5732 21.5 36.2732 19.3 37.1732C6.8 41.9732 0 48.5732 0 55.9732C0 63.3732 6.9 69.9732 19.3 74.7732C21.5 75.5732 23.8 76.3732 26.2 77.0732C25.6 79.4732 25.1 81.8732 24.7 84.1732C22.6 97.3732 24.9 106.673 31.3 110.273C33.2 111.373 35.3 111.873 37.7 111.873C44.8 111.873 53.7 106.673 62.6 97.9732C71.6 106.673 80.5 111.873 87.5 111.873C89.9 111.873 92 111.373 93.9 110.273C100.3 106.573 102.6 97.2732 100.5 84.1732C100.1 81.8732 99.6 79.4732 99 77.0732C101.4 76.3732 103.7 75.6732 105.9 74.7732C118.4 69.9732 125.2 63.3732 125.2 55.9732C125.2 48.5732 118.4 41.9732 105.9 37.1732ZM91.1 6.67324C95.2 9.07324 96.6 16.4732 94.9 26.9732C94.6 29.0732 94.1 31.2732 93.5 33.5732C88.3 32.3732 82.8 31.5732 77 31.0732C73.6 26.2732 70.1 21.9732 66.6 18.0732C74 10.7732 81.5 5.77324 87.6 5.77324C88.9 5.77324 90.1 6.07324 91.1 6.67324ZM79.9 65.9732C78.1 69.1732 76 72.3732 73.8 75.5732C70.1 75.8732 66.4 75.9732 62.6 75.9732C58.7 75.9732 55 75.8732 51.4 75.5732C49.2 72.3732 47.2 69.1732 45.4 65.9732C43.5 62.6732 41.7 59.2732 40.1 55.9732C41.7 52.6732 43.5 49.2732 45.4 45.9732C47.2 42.7732 49.3 39.5732 51.5 36.3732C55.2 36.0732 58.9 35.9732 62.7 35.9732C66.6 35.9732 70.3 36.0732 73.9 36.3732C76.1 39.5732 78.1 42.7732 79.9 45.9732C81.8 49.2732 83.6 52.6732 85.2 55.9732C83.5 59.2732 81.8 62.5732 79.9 65.9732ZM88.2 62.6732C89.7 66.1732 90.9 69.5732 92 72.9732C88.6 73.7732 85 74.3732 81.2 74.8732C82.4 72.9732 83.7 70.9732 84.8 68.8732C86 66.7732 87.1 64.6732 88.2 62.6732ZM62.6 89.7732C60.2 87.1732 57.9 84.3732 55.7 81.4732C58 81.5732 60.3 81.6732 62.6 81.6732C64.9 81.6732 67.2 81.5732 69.5 81.4732C67.3 84.3732 65 87.1732 62.6 89.7732ZM44 74.7732C40.2 74.2732 36.6 73.6732 33.2 72.8732C34.3 69.5732 35.5 66.0732 37 62.5732C38.1 64.5732 39.2 66.6732 40.4 68.6732C41.6 70.8732 42.8 72.7732 44 74.7732ZM37 49.2732C35.5 45.7732 34.3 42.3732 33.2 38.9732C36.6 38.1732 40.2 37.5732 44 37.0732C42.8 38.9732 41.5 40.9732 40.4 43.0732C39.2 45.1732 38.1 47.2732 37 49.2732ZM62.6 22.1732C65 24.7732 67.3 27.5732 69.5 30.4732C67.2 30.3732 64.9 30.2732 62.6 30.2732C60.3 30.2732 58 30.3732 55.7 30.4732C57.9 27.5732 60.2 24.7732 62.6 22.1732ZM84.8 43.1732L81.2 37.1732C85 37.6732 88.6 38.2732 92 39.0732C90.9 42.3732 89.7 45.8732 88.2 49.3732C87.1 47.2732 86 45.1732 84.8 43.1732ZM30.3 26.9732C28.6 16.4732 30 9.07324 34.1 6.67324C35.1 6.07324 36.3 5.77324 37.6 5.77324C43.6 5.77324 51.1 10.6732 58.6 18.0732C55.1 21.8732 51.6 26.2732 48.2 31.0732C42.4 31.5732 36.9 32.4732 31.7 33.5732C31.1 31.2732 30.7 29.0732 30.3 26.9732ZM5.6 55.9732C5.6 51.2732 11.3 46.2732 21.3 42.5732C23.3 41.7732 25.5 41.0732 27.7 40.4732C29.3 45.4732 31.3 50.7732 33.7 56.0732C31.3 61.3732 29.2 66.5732 27.7 71.5732C13.9 67.5732 5.6 61.5732 5.6 55.9732ZM34.1 105.273C30 102.873 28.6 95.4732 30.3 84.9732C30.6 82.8732 31.1 80.6732 31.7 78.3732C36.9 79.5732 42.4 80.3732 48.2 80.8732C51.6 85.6732 55.1 89.9732 58.6 93.8732C51.2 101.173 43.7 106.173 37.6 106.173C36.3 106.173 35.1 105.873 34.1 105.273ZM94.9 84.9732C96.6 95.4732 95.2 102.873 91.1 105.273C90.1 105.873 88.9 106.173 87.6 106.173C81.6 106.173 74.1 101.273 66.6 93.8732C70.1 90.0732 73.6 85.6732 77 80.8732C82.8 80.3732 88.3 79.4732 93.5 78.3732C94.1 80.6732 94.5 82.8732 94.9 84.9732ZM103.9 69.3732C101.9 70.1732 99.7 70.8732 97.5 71.4732C95.9 66.4732 93.9 61.1732 91.5 55.8732C93.9 50.5732 96 45.3732 97.5 40.3732C111.3 44.3732 119.6 50.3732 119.6 55.9732C119.6 60.6732 113.8 65.6732 103.9 69.3732Z" fill="#2E3FB8"/>
</svg>
