<?xml version="1.0" encoding="UTF-8" standalone="no"?>
<!DOCTYPE svg PUBLIC "-//W3C//DTD SVG 1.1//EN" "http://www.w3.org/Graphics/SVG/1.1/DTD/svg11.dtd">
<svg width="100%" height="100%" viewBox="0 0 200 40" version="1.1" 
    xmlns="http://www.w3.org/2000/svg" 
    xmlns:xlink="http://www.w3.org/1999/xlink" xml:space="preserve" 
    xmlns:serif="http://www.serif.com/" style="fill-rule:evenodd;clip-rule:evenodd;stroke-linejoin:round;stroke-miterlimit:1.41421;">
    <g transform="matrix(1,0,0,1,-1330,-353.5)">
        <g transform="matrix(1,0,0,0.478043,0,0)">
            <g id="Sprinthub-Logo" transform="matrix(0.186567,0,0,0.392838,1430,781.311)">
                <g transform="matrix(1,0,0,1,-536,-106.5)">
                    <path d="M125,8.48L122.13,13.07L60.77,110.9C60.366,111.56 59.879,112.165 59.32,112.7C57.625,114.432 55.388,115.531 52.981,115.815C50.574,116.099 48.142,115.55 46.09,114.26L36,108L14.4,94.41C10.245,91.806 6.82,88.188 4.447,83.898C2.073,79.607 0.829,74.784 0.83,69.88C0.816,63.664 2.549,57.569 5.83,52.29L33.83,7.67C35.174,5.528 37.04,3.762 39.252,2.538C41.465,1.314 43.952,0.671 46.48,0.67L127.85,0.67C128.46,3.25 126.53,6.05 125,8.48Z" style="fill:rgb(242,188,34);fill-rule:nonzero;"/>
                    <path d="M207.9,11.51L197.14,91C196.775,93.643 195.378,96.035 193.255,97.652C191.132,99.269 188.456,99.98 185.81,99.63L179.81,98.83L159.73,96.11L127.61,91.76C124.907,91.394 122.459,89.97 120.805,87.801C119.151,85.631 118.426,82.893 118.79,80.19L127.88,13.08L129.55,0.68L198.45,0.68C199.811,0.683 201.155,0.977 202.393,1.542C203.631,2.107 204.734,2.929 205.628,3.954C206.523,4.979 207.188,6.184 207.58,7.487C207.972,8.79 208.081,10.161 207.9,11.51Z" style="fill:rgb(0,21,173);fill-rule:nonzero;"/>
                    <path d="M208,143.09C208.001,149.312 206.247,155.408 202.94,160.68L175,205.3C173.652,207.438 171.786,209.2 169.574,210.424C167.363,211.648 164.878,212.293 162.35,212.3L80.93,212.3C80.35,209.73 82.29,206.93 83.81,204.5L86.68,199.9L148.06,102C148.461,101.338 148.949,100.732 149.51,100.2C151.203,98.467 153.439,97.367 155.845,97.083C158.25,96.799 160.681,97.348 162.73,98.64L172.79,105L194.4,118.55C198.563,121.15 201.995,124.768 204.374,129.061C206.753,133.354 208.001,138.181 208,143.09Z" style="fill:rgb(242,188,34);fill-rule:nonzero;"/>
                    <path d="M90,132.76L80.91,199.87L79.24,212.27L10.36,212.27C8.999,212.266 7.655,211.972 6.417,211.408C5.18,210.843 4.076,210.02 3.182,208.995C2.287,207.97 1.622,206.766 1.23,205.463C0.838,204.16 0.729,202.788 0.91,201.44L11.68,121.91C12.045,119.27 13.441,116.882 15.563,115.268C17.684,113.654 20.358,112.947 23,113.3L29,114.09L49.08,116.81L81.2,121.16C82.54,121.343 83.83,121.788 84.998,122.471C86.165,123.153 87.187,124.059 88.004,125.136C88.822,126.213 89.418,127.441 89.761,128.749C90.103,130.057 90.185,131.42 90,132.76Z" style="fill:rgb(0,21,173);fill-rule:nonzero;"/>
                    <path d="M723.44,171.422L734.44,171.422L745.24,199.782L756.16,171.422L767,171.422L767,211.892L760.14,211.892L760.14,178.282L760,178.282L747.71,211.892L742.71,211.892L730.42,178.282L730.3,178.282L730.3,211.892L723.44,211.892L723.44,171.422Z" style="fill-opacity:0.498039;fill-rule:nonzero;"/>
                    <path d="M801.47,191.831C801.428,188.812 801.971,185.813 803.07,183.001C804.069,180.462 805.576,178.155 807.5,176.221C809.429,174.334 811.727,172.867 814.25,171.911C816.998,170.875 819.914,170.359 822.85,170.391C825.808,170.324 828.753,170.799 831.54,171.791C834.082,172.715 836.4,174.167 838.34,176.051C840.278,177.968 841.797,180.266 842.8,182.801C843.901,185.602 844.444,188.591 844.4,191.601C844.442,194.555 843.898,197.488 842.8,200.231C841.786,202.742 840.268,205.019 838.34,206.921C836.392,208.822 834.079,210.309 831.54,211.291C825.981,213.423 819.838,213.465 814.25,211.411C811.72,210.463 809.418,208.993 807.492,207.098C805.566,205.204 804.059,202.925 803.07,200.411C801.98,197.683 801.436,194.768 801.47,191.831ZM809.02,191.371C808.997,193.414 809.336,195.445 810.02,197.371C810.639,199.123 811.601,200.734 812.85,202.111C814.074,203.448 815.562,204.517 817.22,205.251C819.012,206.039 820.953,206.431 822.91,206.401C824.877,206.428 826.827,206.036 828.63,205.251C830.298,204.52 831.797,203.451 833.03,202.111C834.275,200.732 835.237,199.121 835.86,197.371C836.539,195.444 836.878,193.414 836.86,191.371C836.871,189.439 836.532,187.522 835.86,185.711C835.221,184.01 834.26,182.448 833.03,181.111C831.792,179.789 830.294,178.737 828.63,178.021C826.819,177.263 824.873,176.886 822.91,176.911C820.957,176.883 819.019,177.261 817.22,178.021C815.567,178.74 814.079,179.792 812.85,181.111C811.617,182.446 810.656,184.008 810.02,185.711C809.336,187.519 808.99,189.438 809,191.371L809.02,191.371Z" style="fill-opacity:0.498039;fill-rule:nonzero;"/>
                    <path d="M878.7,171.422L894.48,171.422C896.005,171.429 897.523,171.624 899,172.002C900.434,172.333 901.791,172.933 903,173.772C904.257,174.651 905.273,175.831 905.956,177.204C906.639,178.577 906.967,180.099 906.91,181.632C906.985,183.693 906.294,185.71 904.97,187.292C903.606,188.813 901.843,189.922 899.88,190.492L899.88,190.602C901.106,190.75 902.297,191.109 903.4,191.662C904.445,192.19 905.384,192.905 906.17,193.772C907.772,195.599 908.648,197.952 908.63,200.382C908.724,202.183 908.33,203.975 907.488,205.57C906.647,207.165 905.39,208.503 903.85,209.442C902.34,210.365 900.677,211.011 898.94,211.352C897.088,211.732 895.201,211.923 893.31,211.922L878.7,211.922L878.7,171.422ZM885.9,187.892L892.48,187.892C894.385,188.028 896.282,187.537 897.88,186.492C898.448,186.031 898.904,185.449 899.216,184.787C899.528,184.126 899.686,183.403 899.681,182.672C899.675,181.941 899.505,181.221 899.183,180.565C898.861,179.909 898.395,179.334 897.82,178.882C896.58,178.022 894.59,177.602 891.82,177.602L885.82,177.602L885.9,187.892ZM885.9,205.722L892.53,205.722C893.533,205.718 894.534,205.661 895.53,205.552C896.529,205.453 897.503,205.183 898.41,204.752C899.274,204.344 900.02,203.725 900.58,202.952C901.201,202.016 901.503,200.904 901.44,199.782C901.44,197.642 900.75,196.162 899.36,195.322C897.97,194.482 895.8,194.062 892.87,194.062L885.9,194.062L885.9,205.722Z" style="fill-opacity:0.498039;fill-rule:nonzero;"/>
                    <rect x="943" y="171.422" width="7.2" height="40.47" style="fill-opacity:0.498039;"/>
                    <path d="M986.511,171.422L993.711,171.422L993.711,205.422L1010.92,205.422L1010.92,211.932L986.511,211.932L986.511,171.422Z" style="fill-opacity:0.498039;fill-rule:nonzero;"/>
                    <path d="M1043.62,171.422L1070.43,171.422L1070.43,177.942L1050.82,177.942L1050.82,187.892L1069.4,187.892L1069.4,194.402L1050.82,194.402L1050.82,205.402L1071.45,205.402L1071.45,211.912L1043.62,211.912L1043.62,171.422Z" style="fill-opacity:0.498039;fill-rule:nonzero;"/>
                    <path d="M307.14,73.379C305.018,70.649 302.283,68.458 299.155,66.983C296.028,65.508 292.597,64.79 289.14,64.889C286.478,64.898 283.856,65.539 281.49,66.759C280.297,67.33 279.303,68.247 278.638,69.39C277.973,70.533 277.667,71.85 277.76,73.169C277.76,75.649 279.037,77.476 281.59,78.649C284.721,80.009 287.981,81.051 291.32,81.759L303.94,84.649C308.356,85.664 312.605,87.3 316.56,89.509C320.468,91.696 323.8,94.781 326.28,98.509C328.834,102.296 330.11,107.363 330.11,113.71C330.11,120.203 328.697,125.536 325.87,129.71C323.081,133.899 319.361,137.386 315,139.9C310.376,142.525 305.336,144.341 300.1,145.27C294.71,146.294 289.237,146.813 283.75,146.82C276.543,146.796 269.374,145.786 262.44,143.82C255.525,141.967 249.238,138.285 244.24,133.16L263.06,112.26C265.681,115.609 268.953,118.392 272.68,120.44C276.494,122.372 280.726,123.333 285,123.24C288.308,123.283 291.6,122.759 294.73,121.69C297.63,120.69 299.08,118.76 299.08,116C299.1,114.747 298.746,113.517 298.064,112.466C297.382,111.416 296.402,110.592 295.25,110.1C292.154,108.605 288.886,107.493 285.52,106.79C281.594,105.89 277.387,104.923 272.9,103.89C268.51,102.893 264.268,101.33 260.28,99.239C256.353,97.172 253.011,94.149 250.56,90.449C248,86.649 246.724,81.579 246.73,75.239C246.586,69.908 247.834,64.632 250.35,59.929C252.686,55.739 255.941,52.132 259.87,49.379C263.98,46.54 268.571,44.47 273.42,43.269C278.489,41.951 283.703,41.279 288.94,41.269C295.731,41.306 302.483,42.293 309,44.199C315.561,46.018 321.499,49.597 326.17,54.549L307.14,73.379Z" style="fill:rgb(242,188,34);fill-rule:nonzero;"/>
                    <path d="M343.72,51.58L370.07,51.58L370.07,63.79L370.45,63.79C371.759,61.949 373.261,60.253 374.93,58.73C376.902,56.923 379.08,55.356 381.42,54.06C383.993,52.621 386.716,51.468 389.54,50.62C392.573,49.712 395.724,49.26 398.89,49.28C405.301,49.192 411.664,50.396 417.6,52.82C423.047,55.071 427.955,58.452 432,62.74C436.079,67.123 439.229,72.287 441.26,77.92C443.476,84.103 444.574,90.632 444.5,97.2C444.512,103.525 443.498,109.809 441.5,115.81C439.646,121.509 436.803,126.838 433.1,131.55C429.507,136.112 424.987,139.862 419.84,142.55C414.348,145.35 408.253,146.758 402.09,146.65C396.401,146.701 390.747,145.764 385.38,143.88C380.294,142.086 375.87,138.795 372.69,134.44L372.31,134.44L372.31,187.88L343.72,187.88L343.72,51.58ZM370.07,98C370.07,105 372.07,110.667 376.07,115C380.07,119.333 385.713,121.48 393,121.44C400.26,121.44 405.893,119.277 409.9,114.95C413.906,110.623 415.906,104.957 415.9,97.95C415.9,90.95 413.9,85.283 409.9,80.95C405.9,76.617 400.266,74.46 393,74.48C385.753,74.48 380.123,76.643 376.11,80.97C372.096,85.297 370.083,90.973 370.07,98Z" style="fill:rgb(242,188,34);fill-rule:nonzero;"/>
                    <path d="M457.49,51.579L486.12,51.579L486.12,66.459L486.5,66.459C489.56,60.739 493.187,56.446 497.38,53.579C501.574,50.713 506.857,49.279 513.23,49.279C514.88,49.279 516.53,49.349 518.23,49.479C519.778,49.585 521.311,49.84 522.81,50.239L522.81,76.389C520.847,75.77 518.842,75.292 516.81,74.959C514.756,74.633 512.68,74.473 510.6,74.479C505.134,74.479 500.8,75.243 497.6,76.769C494.587,78.149 492.038,80.372 490.26,83.169C488.447,86.166 487.304,89.519 486.91,92.999C486.38,97.175 486.126,101.38 486.15,105.589L486.15,144.339L457.49,144.339L457.49,51.579Z" style="fill:rgb(242,188,34);fill-rule:nonzero;"/>
                    <path d="M529.45,22.369C529.446,18.521 530.776,14.79 533.215,11.813C535.653,8.836 539.049,6.797 542.822,6.043C546.596,5.289 550.515,5.867 553.91,7.679C557.305,9.491 559.966,12.424 561.441,15.979C562.915,19.533 563.112,23.489 561.996,27.172C560.88,30.855 558.522,34.037 555.322,36.176C552.123,38.315 548.281,39.278 544.451,38.901C540.622,38.524 537.041,36.83 534.32,34.109C532.749,32.589 531.507,30.763 530.669,28.743C529.832,26.724 529.417,24.555 529.45,22.369ZM531.74,51.579L560.37,51.579L560.37,144.339L531.74,144.339L531.74,51.579Z" style="fill:rgb(242,188,34);fill-rule:nonzero;"/>
                    <path d="M577.17,51.581L604.65,51.58L604.65,64.17L605,64.171C606.011,62.217 607.298,60.419 608.82,58.83C610.561,56.976 612.55,55.371 614.73,54.06C617.184,52.586 619.815,51.431 622.56,50.62C625.656,49.704 628.871,49.253 632.1,49.28C639.36,49.281 645.213,50.394 649.66,52.62C653.924,54.678 657.53,57.885 660.07,61.88C662.664,66.146 664.384,70.884 665.13,75.82C666.044,81.565 666.489,87.374 666.46,93.19L666.46,144.34L637.87,144.34L637.87,98.91C637.87,96.244 637.773,93.477 637.58,90.611C637.424,87.897 636.844,85.224 635.86,82.691C634.966,80.353 633.448,78.305 631.47,76.771C629.47,75.251 626.67,74.481 622.98,74.481C619.856,74.342 616.751,75.032 613.98,76.481C611.769,77.744 609.951,79.596 608.73,81.831C607.48,84.177 606.67,86.733 606.34,89.371C605.953,92.281 605.762,95.214 605.77,98.151L605.77,144.34L577.17,144.34L577.17,51.581Z" style="fill:rgb(242,188,34);fill-rule:nonzero;"/>
                    <path d="M746.09,74.48L720.9,74.48L720.9,105.41C720.883,107.749 721.01,110.087 721.28,112.41C721.474,114.322 722.06,116.174 723,117.85C723.957,119.433 725.393,120.669 727.1,121.38C729.439,122.296 731.941,122.718 734.45,122.62C736.458,122.587 738.462,122.43 740.45,122.15C742.506,122.002 744.469,121.235 746.08,119.95L746.08,143.81C742.876,144.963 739.546,145.732 736.16,146.1C732.8,146.475 729.422,146.666 726.04,146.67C721.542,146.707 717.056,146.197 712.68,145.15C708.837,144.216 705.211,142.549 702,140.24C698.926,137.986 696.465,134.998 694.84,131.55C693.018,127.465 692.14,123.021 692.27,118.55L692.27,74.48L673.94,74.48L673.94,51.58L692.27,51.58L692.27,24.09L720.9,24.09L720.9,51.58L746.09,51.58L746.09,74.48Z" style="fill:rgb(242,188,34);fill-rule:nonzero;"/>
                    <path d="M785.42,0L785.42,64.13L785.8,64.13C786.545,62.167 787.643,60.357 789.04,58.79C790.647,56.941 792.513,55.334 794.58,54.02C796.951,52.524 799.519,51.366 802.21,50.58C805.31,49.664 808.528,49.212 811.76,49.24C819.014,49.24 824.867,50.353 829.32,52.58C833.58,54.64 837.181,57.847 839.72,61.84C842.319,66.103 844.039,70.843 844.78,75.78C845.703,81.523 846.151,87.333 846.12,93.15L846.12,144.3L817.48,144.3L817.48,98.91C817.48,96.243 817.387,93.477 817.2,90.61C817.044,87.896 816.464,85.224 815.48,82.69C814.586,80.352 813.068,78.304 811.09,76.77C809.09,75.25 806.29,74.48 802.6,74.48C799.476,74.34 796.371,75.03 793.6,76.48C791.389,77.743 789.571,79.595 788.35,81.83C787.101,84.177 786.291,86.732 785.96,89.37C785.573,92.281 785.383,95.214 785.39,98.15L785.39,144.34L756.78,144.34L756.78,0L785.42,0Z" style="fill:rgb(0,21,173);fill-rule:nonzero;"/>
                    <path d="M951.86,144.34L924.38,144.34L924.38,131.75L924,131.75C922.886,133.661 921.575,135.451 920.09,137.09C918.394,138.957 916.433,140.564 914.27,141.86C911.816,143.334 909.185,144.49 906.44,145.3C903.343,146.214 900.128,146.662 896.9,146.63C889.653,146.63 883.766,145.52 879.24,143.3C874.938,141.259 871.299,138.046 868.74,134.03C866.135,129.779 864.433,125.037 863.74,120.1C862.882,114.35 862.467,108.543 862.5,102.73L862.5,51.58L891.13,51.58L891.13,97C891.13,99.667 891.226,102.437 891.42,105.31C891.576,108.024 892.156,110.696 893.14,113.23C894.03,115.57 895.549,117.619 897.53,119.15C899.53,120.67 902.33,121.44 906.02,121.44C909.144,121.584 912.25,120.893 915.02,119.44C917.235,118.186 919.054,116.336 920.27,114.1C921.519,111.753 922.329,109.198 922.66,106.56C923.047,103.65 923.237,100.716 923.23,97.78L923.23,51.58L951.86,51.58L951.86,144.34Z" style="fill:rgb(0,21,173);fill-rule:nonzero;"/>
                    <path d="M971,0L999.63,0L999.63,61.5L1000.01,61.5C1003.19,57.142 1007.62,53.848 1012.71,52.05C1018.08,50.17 1023.73,49.233 1029.41,49.28C1035.57,49.175 1041.67,50.586 1047.16,53.39C1052.31,56.076 1056.83,59.826 1060.42,64.39C1064.12,69.107 1066.96,74.439 1068.82,80.14C1070.82,86.139 1071.84,92.425 1071.82,98.75C1071.89,105.318 1070.8,111.847 1068.58,118.03C1066.55,123.662 1063.4,128.823 1059.32,133.2C1055.28,137.495 1050.36,140.88 1044.91,143.13C1038.97,145.546 1032.61,146.747 1026.2,146.66C1023.03,146.683 1019.88,146.234 1016.85,145.33C1014.03,144.484 1011.31,143.33 1008.74,141.89C1006.4,140.595 1004.22,139.028 1002.25,137.22C1000.58,135.697 999.074,134.001 997.76,132.16L997.38,132.16L997.38,144.37L971,144.37L971,0ZM997.29,98C997.29,105 999.29,110.667 1003.29,115C1007.29,119.333 1012.92,121.497 1020.19,121.49C1027.44,121.49 1033.07,119.327 1037.08,115C1041.09,110.673 1043.09,105.007 1043.08,98C1043.08,91 1041.08,85.333 1037.08,81C1033.08,76.667 1027.45,74.503 1020.19,74.51C1012.93,74.51 1007.3,76.673 1003.29,81C999.283,85.327 997.283,90.993 997.29,98Z" style="fill:rgb(0,21,173);fill-rule:nonzero;"/>
                </g>
            </g>
        </g>
    </g>
</svg>
