<svg width="65" height="56" viewBox="0 0 65 56" fill="none" xmlns="http://www.w3.org/2000/svg">
<g clip-path="url(#clip0)">
<path d="M63.8504 44.2233H0.67111C0.424998 44.2233 0.223633 44.0214 0.223633 43.7747V0.673255C0.223633 0.4265 0.424998 0.224609 0.67111 0.224609H63.8504C64.0965 0.224609 64.2979 0.4265 64.2979 0.673255V43.7747C64.2979 44.0214 64.0965 44.2233 63.8504 44.2233Z" stroke="#0015AD" stroke-miterlimit="10"/>
<path d="M64.2979 36.9277H0.223633V44.2227H64.2979V36.9277Z" stroke="#0015AD" stroke-miterlimit="10"/>
<path d="M28.168 44.0605L25.1699 55.7747" stroke="#0015AD" stroke-miterlimit="10"/>
<path d="M36.0439 44.0605L39.0465 55.7747" stroke="#0015AD" stroke-miterlimit="10"/>
<path d="M22.7363 55.7754H41.7854" stroke="#0015AD" stroke-miterlimit="10"/>
<path d="M32.1066 42.8784C32.6379 42.8784 33.0687 42.4465 33.0687 41.9138C33.0687 41.3811 32.6379 40.9492 32.1066 40.9492C31.5753 40.9492 31.1445 41.3811 31.1445 41.9138C31.1445 42.4465 31.5753 42.8784 32.1066 42.8784Z" fill="white"/>
<path opacity="0.9" d="M49.7237 17.0167V13.0642H47.8264C47.5892 11.9336 47.1462 10.8389 46.4929 9.8384L47.8353 8.49246L45.0476 5.69739L43.7051 7.04333C42.7073 6.39279 41.6154 5.94864 40.4878 5.70637V3.80859H36.5455V5.71085C35.4179 5.94864 34.326 6.3928 33.3281 7.04782L31.9857 5.70188L29.1979 8.49695L30.5404 9.84288C29.8915 10.8434 29.4485 11.9381 29.2069 13.0686H27.3096V17.0212H29.2069C29.444 18.1518 29.887 19.2465 30.5359 20.247L29.1934 21.5929L31.9812 24.388L33.3237 23.0421C34.3215 23.6926 35.4134 24.1367 36.541 24.3745V26.2768H40.4833V24.3745C41.6109 24.1367 42.7028 23.6926 43.7007 23.0376L45.0431 24.3835L47.8309 21.5884L46.4884 20.2425C47.1373 19.242 47.5803 18.1473 47.8174 17.0167H49.7237Z" fill="#F2BC22" stroke="#0015AD" stroke-miterlimit="10" stroke-linecap="round" stroke-linejoin="round"/>
<path d="M38.5185 19.6274C41.0443 19.6274 43.0918 17.5745 43.0918 15.0422C43.0918 12.5099 41.0443 10.457 38.5185 10.457C35.9928 10.457 33.9453 12.5099 33.9453 15.0422C33.9453 17.5745 35.9928 19.6274 38.5185 19.6274Z" fill="#F2BC22" stroke="#0015AD" stroke-miterlimit="10" stroke-linecap="round" stroke-linejoin="round"/>
<path d="M29.2117 26.7353V24.4337H28.1064C27.9677 23.7742 27.7082 23.1372 27.3323 22.5539L28.1154 21.7688L26.491 20.1402L25.7079 20.9253C25.1262 20.544 24.4908 20.2883 23.833 20.1492V19.041H21.5374V20.1492C20.8797 20.2883 20.2442 20.5485 19.6625 20.9253L18.8794 20.1402L17.2551 21.7688L18.0382 22.5539C17.6578 23.1372 17.4028 23.7742 17.264 24.4337H16.1543V26.7353H17.2596C17.3983 27.3948 17.6578 28.0319 18.0337 28.6151L17.2506 29.4003L18.875 31.0288L19.658 30.2437C20.2398 30.6251 20.8752 30.8808 21.533 31.0199V32.128H23.8285V31.0199C24.4863 30.8808 25.1217 30.6206 25.7035 30.2437L26.4865 31.0288L28.1109 29.4003L27.3278 28.6151C27.7082 28.0319 27.9632 27.3948 28.1019 26.7353H29.2117Z" fill="#F2BC22" stroke="#0015AD" stroke-miterlimit="10" stroke-linecap="round" stroke-linejoin="round"/>
<path d="M22.6826 28.26C24.1555 28.26 25.3496 27.0628 25.3496 25.586C25.3496 24.1093 24.1555 22.9121 22.6826 22.9121C21.2097 22.9121 20.0156 24.1093 20.0156 25.586C20.0156 27.0628 21.2097 28.26 22.6826 28.26Z" fill="#F2BC22" stroke="#0015AD" stroke-miterlimit="10" stroke-linecap="round" stroke-linejoin="round"/>
<path d="M31.5204 26.6368L32.0752 29.4274C32.1334 29.7279 32.5048 29.8401 32.7196 29.6248L33.2924 29.0505L34.3708 30.1317C34.6706 30.4323 35.1494 30.4323 35.4492 30.1317C35.749 29.8311 35.749 29.3511 35.4492 29.0505L34.3708 27.9693L34.9435 27.395C35.1583 27.1796 35.0465 26.8117 34.7467 26.7489L31.9634 26.1926C31.7038 26.1343 31.4667 26.3676 31.5204 26.6368Z" stroke="#0015AD" stroke-width="0.5" stroke-miterlimit="10" stroke-linecap="round" stroke-linejoin="round"/>
<path d="M32.5539 41.3686C33.0852 41.3686 33.5159 40.9368 33.5159 40.404C33.5159 39.8713 33.0852 39.4395 32.5539 39.4395C32.0225 39.4395 31.5918 39.8713 31.5918 40.404C31.5918 40.9368 32.0225 41.3686 32.5539 41.3686Z" fill="#FFC31A" stroke="#0015AD" stroke-width="0.5" stroke-miterlimit="10" stroke-linecap="round" stroke-linejoin="round"/>
</g>
<defs>
<clipPath id="clip0">
<rect width="64.5217" height="56" fill="white"/>
</clipPath>
</defs>
</svg>
