<svg width="128" height="128" viewBox="0 0 128 128" fill="none" xmlns="http://www.w3.org/2000/svg">
<path d="M126.33 34.0602C126.329 31.4304 126.065 28.8072 125.54 26.2302C125.015 23.5921 124.123 21.0407 122.89 18.6502C121.601 16.3349 120 14.2082 118.13 12.3302C116.202 10.4436 113.962 8.90432 111.51 7.78023C109.09 6.55994 106.502 5.70723 103.83 5.25023C101.18 4.74023 98.2702 4.74023 95.6202 4.49023H30.2502C28.2111 4.52344 26.1765 4.69382 24.1602 5.00023C22.1593 5.23579 20.2007 5.74731 18.3402 6.52023C17.8102 6.77023 17.0202 7.03023 16.4902 7.28023C14.7299 8.22379 13.0567 9.32141 11.4902 10.5602C10.9602 11.0702 10.4302 11.3202 9.9002 11.8202C7.95126 13.6279 6.33947 15.7679 5.1402 18.1402C3.83052 20.4971 2.93423 23.0608 2.4902 25.7202C2.09612 28.3154 1.83245 30.9287 1.7002 33.5502V93.9402C1.70102 96.5701 1.96568 99.1932 2.4902 101.77C3.01498 104.408 3.90699 106.96 5.1402 109.35C6.42898 111.666 8.03072 113.792 9.9002 115.67C11.8284 117.557 14.068 119.096 16.5202 120.22C18.9402 121.441 21.5287 122.293 24.2002 122.75C26.8502 123.26 29.7602 123.26 32.4102 123.51H95.6302C98.3843 123.508 101.132 123.254 103.84 122.75C106.512 122.293 109.1 121.441 111.52 120.22C113.92 119.006 116.147 117.476 118.14 115.67C120.089 113.863 121.701 111.723 122.9 109.35C124.21 106.993 125.106 104.43 125.55 101.77C125.944 99.1751 126.208 96.5618 126.34 93.9402V34.0602H126.33Z" fill="#2E3FB8"/>
<path d="M84.9998 96.5004C73.8898 102.63 58.6198 103.26 43.2498 96.9704C31.266 92.108 21.0197 83.757 13.8398 73.0004C17.1766 75.5547 20.822 77.6781 24.6898 79.3204C40.5598 86.4204 56.4198 85.9304 67.5898 79.3204C51.6898 67.6604 38.1898 52.5004 28.1298 40.1204C26.1446 38.0282 24.3726 35.7436 22.8398 33.3004C34.9998 43.9104 54.3398 57.3004 61.2198 61.0904C51.3966 51.0253 42.3695 40.2128 34.2198 28.7504C47.7669 41.9153 62.6739 53.6042 78.6898 63.6204C79.3998 64.0004 79.9498 64.3204 80.3898 64.6204C80.8593 63.4743 81.2633 62.3024 81.5998 61.1104C85.3098 48.2204 81.0698 33.5704 71.8098 21.4404C93.2498 33.8104 106 57.0504 100.66 76.5104C100.52 77.0404 100.37 77.5104 100.21 78.0604L100.4 78.2804C110.99 90.9104 108.08 104.28 106.75 101.78C101 91.0004 90.3699 94.3304 84.9998 96.5004Z" fill="#FEFEFE"/>
</svg>
