<svg width="126" height="126" viewBox="0 0 126 126" fill="none" xmlns="http://www.w3.org/2000/svg">
<path d="M120.94 45.9736H21.2695V119.644H120.94V45.9736Z" fill="white"/>
<path d="M0.0996094 62.8838V125.384H125.1V0.383789H0.0996094V62.8838ZM100.83 57.8838C103.824 58.5786 106.545 60.1444 108.65 62.3838C109.808 63.5902 110.816 64.9335 111.65 66.3838C111.65 66.5438 106.25 70.1938 102.96 72.2338C102.84 72.3138 102.36 71.7938 101.83 71.0038C101.229 69.9675 100.376 69.1002 99.3492 68.4829C98.3227 67.8656 97.1566 67.5184 95.9596 67.4738C92.1696 67.2138 89.7296 69.2038 89.7496 72.4738C89.7183 73.2879 89.9047 74.0957 90.2896 74.8138C91.1196 76.5438 92.6696 77.5738 97.5296 79.6738C106.48 83.5238 110.31 86.0638 112.69 89.6738C115.35 93.6738 115.94 100.134 114.14 104.914C112.14 110.114 107.24 113.644 100.31 114.814C97.1445 115.176 93.9464 115.143 90.7896 114.714C85.9513 113.916 81.4944 111.593 78.0696 108.084C76.9196 106.814 74.6796 103.504 74.8196 103.264C75.1847 102.993 75.569 102.749 75.9696 102.534L80.5996 99.9738L84.1896 97.8938L84.9396 99.0038C86.2053 100.814 87.8162 102.357 89.6796 103.544C93.6796 105.644 99.1396 105.354 101.84 102.924C102.746 102.033 103.312 100.853 103.438 99.5887C103.564 98.3243 103.242 97.0557 102.53 96.0038C101.53 94.6138 99.5296 93.4438 93.9396 91.0038C87.4896 88.2238 84.7096 86.5038 82.1696 83.7638C80.5839 81.9557 79.4132 79.8224 78.7396 77.5138C78.2372 74.8762 78.1629 72.175 78.5196 69.5138C79.8496 63.2838 84.5196 58.9338 91.3396 57.6438C94.498 57.253 97.6973 57.3406 100.83 57.9038V57.8838ZM71.4896 63.1238V68.2438H55.2596V114.474H43.7496V68.2338H27.4796V63.2338C27.4289 61.5095 27.469 59.7838 27.5996 58.0638C27.6796 57.9738 37.5996 57.9738 49.5996 57.9738H71.4296L71.4896 63.1238Z" fill="#2E3FB8"/>
</svg>
